G04*
G04 #@! TF.GenerationSoftware,Altium Limited,Altium Designer,19.1.3 (30)*
G04*
G04 Layer_Color=8388736*
%FSLAX25Y25*%
%MOIN*%
G70*
G01*
G75*
%ADD33R,0.03800X0.03800*%
%ADD34O,0.11430X0.04737*%
%ADD35R,0.11430X0.04737*%
%ADD36R,0.08083X0.04343*%
%ADD37R,0.05328X0.03359*%
%ADD38R,0.06115X0.04737*%
%ADD39R,0.05918X0.03359*%
%ADD40R,0.03800X0.03800*%
%ADD41R,0.07690X0.09461*%
%ADD42R,0.08674X0.08674*%
%ADD43R,0.08280X0.01902*%
%ADD44R,0.10642X0.22847*%
%ADD45R,0.03753X0.09300*%
%ADD46R,0.03753X0.11300*%
%ADD47R,0.06800X0.10800*%
%ADD48R,0.06706X0.06706*%
%ADD49C,0.06706*%
%ADD50C,0.02800*%
%ADD51C,0.05800*%
%ADD52C,0.03800*%
D33*
X141559Y41000D02*
D03*
X136441D02*
D03*
X275382Y256500D02*
D03*
X280500D02*
D03*
X238618Y269000D02*
D03*
X233500D02*
D03*
X158441Y23000D02*
D03*
X163559D02*
D03*
X158441Y5500D02*
D03*
X163559D02*
D03*
X137000Y5500D02*
D03*
X142118D02*
D03*
X136941Y23000D02*
D03*
X142059D02*
D03*
X79059Y137500D02*
D03*
X73941D02*
D03*
X171059Y266500D02*
D03*
X165941D02*
D03*
X170618Y254500D02*
D03*
X165500D02*
D03*
X195059Y254500D02*
D03*
X189941D02*
D03*
X186882Y286500D02*
D03*
X192000D02*
D03*
X232441Y362500D02*
D03*
X237559D02*
D03*
X321382Y291000D02*
D03*
X326500D02*
D03*
X321382Y303000D02*
D03*
X326500D02*
D03*
X326559Y314500D02*
D03*
X321441D02*
D03*
X266941Y363000D02*
D03*
X272059D02*
D03*
X313882Y362500D02*
D03*
X319000D02*
D03*
X304059Y362500D02*
D03*
X298941D02*
D03*
X190059Y214500D02*
D03*
X184941D02*
D03*
X195059Y266500D02*
D03*
X189941D02*
D03*
X192059Y310000D02*
D03*
X186941D02*
D03*
X192118Y318500D02*
D03*
X187000D02*
D03*
X192559Y338000D02*
D03*
X187441D02*
D03*
X187441Y365500D02*
D03*
X192559D02*
D03*
X187441Y356500D02*
D03*
X192559D02*
D03*
X187441Y347500D02*
D03*
X192559D02*
D03*
X171441Y363000D02*
D03*
X166323D02*
D03*
X166323Y375000D02*
D03*
X171441D02*
D03*
X144382Y361000D02*
D03*
X149500D02*
D03*
X192559Y375000D02*
D03*
X187441D02*
D03*
X149559Y374500D02*
D03*
X144441D02*
D03*
X349118Y41000D02*
D03*
X344000D02*
D03*
X323059Y41000D02*
D03*
X317941D02*
D03*
X301059Y41000D02*
D03*
X295941D02*
D03*
X330941Y231500D02*
D03*
X336059D02*
D03*
X234440Y233500D02*
D03*
X239559D02*
D03*
X131941Y233500D02*
D03*
X137059D02*
D03*
X276559Y212000D02*
D03*
X271441D02*
D03*
X80059Y215000D02*
D03*
X74941D02*
D03*
X149059Y347000D02*
D03*
X143941D02*
D03*
X280559Y269000D02*
D03*
X275441D02*
D03*
X339941Y164000D02*
D03*
X345059D02*
D03*
X239000Y170000D02*
D03*
X244118D02*
D03*
X135441Y162056D02*
D03*
X140559D02*
D03*
X283059Y137000D02*
D03*
X277941D02*
D03*
X190559Y137500D02*
D03*
X185441D02*
D03*
X345059Y129500D02*
D03*
X339941D02*
D03*
X345059Y146000D02*
D03*
X339941D02*
D03*
X244559Y137000D02*
D03*
X239441D02*
D03*
X244059Y154000D02*
D03*
X238941D02*
D03*
X140559Y132056D02*
D03*
X135441D02*
D03*
X140559Y147055D02*
D03*
X135441D02*
D03*
X216441Y12500D02*
D03*
X221559D02*
D03*
D34*
X92689Y18500D02*
D03*
X93689Y49500D02*
D03*
D35*
X116311Y18500D02*
D03*
X117311Y49500D02*
D03*
D36*
X298874Y205902D02*
D03*
Y231099D02*
D03*
X308126Y205902D02*
D03*
Y231099D02*
D03*
X111780Y233429D02*
D03*
Y208232D02*
D03*
X102528Y233429D02*
D03*
Y208232D02*
D03*
X216972Y233429D02*
D03*
Y208232D02*
D03*
X207720Y233429D02*
D03*
Y208232D02*
D03*
X312626Y155598D02*
D03*
Y130402D02*
D03*
X303374Y155598D02*
D03*
Y130402D02*
D03*
X216472Y156429D02*
D03*
Y131232D02*
D03*
X207220Y156429D02*
D03*
Y131232D02*
D03*
X110780Y156429D02*
D03*
Y131232D02*
D03*
X101528Y156429D02*
D03*
Y131232D02*
D03*
D37*
X300153Y212398D02*
D03*
X103807Y214728D02*
D03*
X209000D02*
D03*
X304654Y136898D02*
D03*
X208500Y137728D02*
D03*
X102807D02*
D03*
D38*
X300153Y217831D02*
D03*
Y223933D02*
D03*
X306846Y217831D02*
D03*
Y223933D02*
D03*
X110500Y226264D02*
D03*
Y220161D02*
D03*
X103807Y226264D02*
D03*
Y220161D02*
D03*
X215693Y226264D02*
D03*
Y220161D02*
D03*
X209000Y226264D02*
D03*
Y220161D02*
D03*
X311347Y148433D02*
D03*
Y142331D02*
D03*
X304654Y148433D02*
D03*
Y142331D02*
D03*
X215193Y149264D02*
D03*
Y143161D02*
D03*
X208500Y149264D02*
D03*
Y143161D02*
D03*
X109500Y149264D02*
D03*
Y143161D02*
D03*
X102807Y149264D02*
D03*
Y143161D02*
D03*
D39*
X306846Y212398D02*
D03*
X110500Y214728D02*
D03*
X215693D02*
D03*
X311347Y136898D02*
D03*
X215193Y137728D02*
D03*
X109500D02*
D03*
D40*
X302000Y105559D02*
D03*
Y100441D02*
D03*
X299500Y342059D02*
D03*
Y336941D02*
D03*
X315500Y105559D02*
D03*
Y100441D02*
D03*
X252500Y192059D02*
D03*
Y186941D02*
D03*
X237500Y192059D02*
D03*
Y186941D02*
D03*
X153000Y185441D02*
D03*
Y190559D02*
D03*
X136500Y185059D02*
D03*
Y190177D02*
D03*
D41*
X325500Y348055D02*
D03*
Y329945D02*
D03*
X365000Y147555D02*
D03*
Y129445D02*
D03*
X261000Y147445D02*
D03*
Y165555D02*
D03*
X162500Y135000D02*
D03*
Y153110D02*
D03*
X216500Y58555D02*
D03*
Y40445D02*
D03*
D42*
X373500Y339500D02*
D03*
X343500D02*
D03*
D43*
X237500Y344000D02*
D03*
Y342032D02*
D03*
Y340063D02*
D03*
Y338094D02*
D03*
Y336126D02*
D03*
Y334157D02*
D03*
Y332189D02*
D03*
Y330220D02*
D03*
Y328252D02*
D03*
Y326283D02*
D03*
Y324315D02*
D03*
Y322346D02*
D03*
Y320378D02*
D03*
Y318409D02*
D03*
Y316441D02*
D03*
Y314472D02*
D03*
Y312504D02*
D03*
Y310535D02*
D03*
Y308567D02*
D03*
Y306598D02*
D03*
Y304630D02*
D03*
Y302661D02*
D03*
Y300693D02*
D03*
Y298724D02*
D03*
Y296756D02*
D03*
Y294787D02*
D03*
Y292819D02*
D03*
Y290850D02*
D03*
X267000D02*
D03*
Y292819D02*
D03*
Y294787D02*
D03*
Y296756D02*
D03*
Y298724D02*
D03*
Y300693D02*
D03*
Y302661D02*
D03*
Y304630D02*
D03*
Y306598D02*
D03*
Y308567D02*
D03*
Y310535D02*
D03*
Y312504D02*
D03*
Y314472D02*
D03*
Y316441D02*
D03*
Y318409D02*
D03*
Y320378D02*
D03*
Y322346D02*
D03*
Y324315D02*
D03*
Y326283D02*
D03*
Y328252D02*
D03*
Y330220D02*
D03*
Y332189D02*
D03*
Y334157D02*
D03*
Y336126D02*
D03*
Y338095D02*
D03*
Y340063D02*
D03*
Y342032D02*
D03*
Y344000D02*
D03*
D44*
X252500Y316500D02*
D03*
D45*
X334874Y6500D02*
D03*
X330937D02*
D03*
X327000D02*
D03*
X323063D02*
D03*
X319126D02*
D03*
X315189D02*
D03*
X311252D02*
D03*
D46*
X339874Y23000D02*
D03*
X305874D02*
D03*
D47*
X356291Y301500D02*
D03*
X367709D02*
D03*
D48*
X13000Y266000D02*
D03*
Y371500D02*
D03*
D49*
X23000Y266000D02*
D03*
X13000Y256000D02*
D03*
X23000D02*
D03*
X13000Y246000D02*
D03*
X23000D02*
D03*
X13000Y236000D02*
D03*
X23000D02*
D03*
X13000Y226000D02*
D03*
X23000D02*
D03*
X13000Y216000D02*
D03*
X23000D02*
D03*
X13000Y206000D02*
D03*
X23000D02*
D03*
X13000Y196000D02*
D03*
X23000D02*
D03*
Y371500D02*
D03*
X13000Y361500D02*
D03*
X23000D02*
D03*
X13000Y351500D02*
D03*
X23000D02*
D03*
X13000Y341500D02*
D03*
X23000D02*
D03*
X13000Y331500D02*
D03*
X23000D02*
D03*
X13000Y321500D02*
D03*
X23000D02*
D03*
X13000Y311500D02*
D03*
X23000D02*
D03*
X13000Y301500D02*
D03*
X23000D02*
D03*
D50*
X366000Y348500D02*
D03*
X358500Y333500D02*
D03*
X366000Y318500D02*
D03*
Y288500D02*
D03*
X358500Y273500D02*
D03*
X366000Y258500D02*
D03*
X358500Y243500D02*
D03*
X366000Y228500D02*
D03*
X358500Y213500D02*
D03*
X366000Y198500D02*
D03*
X358500Y183500D02*
D03*
X366000Y168500D02*
D03*
X358500Y153500D02*
D03*
X366000Y138500D02*
D03*
X358500Y123500D02*
D03*
X366000Y108500D02*
D03*
X358500Y93500D02*
D03*
X366000Y78500D02*
D03*
X358500Y63500D02*
D03*
X366000Y48500D02*
D03*
X358500Y33500D02*
D03*
X366000Y18500D02*
D03*
X351000Y348500D02*
D03*
X343500Y273500D02*
D03*
Y243500D02*
D03*
Y213500D02*
D03*
Y183500D02*
D03*
Y123500D02*
D03*
Y93500D02*
D03*
Y63500D02*
D03*
Y33500D02*
D03*
X336000Y348500D02*
D03*
Y288500D02*
D03*
Y258500D02*
D03*
X328500Y243500D02*
D03*
X336000Y198500D02*
D03*
X328500Y183500D02*
D03*
X336000Y168500D02*
D03*
X328500Y153500D02*
D03*
X336000Y48500D02*
D03*
X313500Y333500D02*
D03*
X321000Y258500D02*
D03*
X313500Y243500D02*
D03*
Y213500D02*
D03*
X321000Y198500D02*
D03*
X313500Y183500D02*
D03*
X321000Y168500D02*
D03*
X313500Y93500D02*
D03*
X321000Y48500D02*
D03*
X306000Y348500D02*
D03*
Y198500D02*
D03*
X298500Y183500D02*
D03*
X306000Y168500D02*
D03*
X298500Y123500D02*
D03*
Y93500D02*
D03*
X306000Y78500D02*
D03*
X298500Y63500D02*
D03*
X306000Y48500D02*
D03*
X298500Y33500D02*
D03*
X283500Y183500D02*
D03*
Y153500D02*
D03*
Y93500D02*
D03*
Y63500D02*
D03*
X276000Y348500D02*
D03*
X268500Y183500D02*
D03*
Y153500D02*
D03*
Y123500D02*
D03*
X276000Y108500D02*
D03*
Y78500D02*
D03*
X268500Y63500D02*
D03*
X276000Y18500D02*
D03*
X261000Y348500D02*
D03*
Y288500D02*
D03*
X253500Y243500D02*
D03*
X261000Y198500D02*
D03*
X253500Y153500D02*
D03*
Y123500D02*
D03*
Y93500D02*
D03*
Y33500D02*
D03*
X261000Y18500D02*
D03*
X246000Y288500D02*
D03*
X238500Y273500D02*
D03*
Y243500D02*
D03*
Y213500D02*
D03*
Y123500D02*
D03*
X246000Y108500D02*
D03*
X238500Y93500D02*
D03*
X246000Y78500D02*
D03*
Y48500D02*
D03*
X238500Y33500D02*
D03*
X246000Y18500D02*
D03*
X231000Y348500D02*
D03*
X223500Y273500D02*
D03*
Y243500D02*
D03*
Y213500D02*
D03*
X231000Y198500D02*
D03*
X223500Y183500D02*
D03*
X231000Y138500D02*
D03*
X223500Y123500D02*
D03*
Y93500D02*
D03*
X231000Y78500D02*
D03*
X223500Y63500D02*
D03*
X231000Y48500D02*
D03*
X223500Y33500D02*
D03*
X231000Y18500D02*
D03*
X208500Y333500D02*
D03*
Y243500D02*
D03*
X216000Y198500D02*
D03*
Y168500D02*
D03*
X208500Y123500D02*
D03*
X216000Y108500D02*
D03*
X208500Y93500D02*
D03*
X216000Y78500D02*
D03*
X208500Y63500D02*
D03*
X216000Y48500D02*
D03*
X208500Y33500D02*
D03*
X201000Y258500D02*
D03*
Y198500D02*
D03*
Y168500D02*
D03*
X193500Y123500D02*
D03*
X201000Y108500D02*
D03*
X193500Y93500D02*
D03*
X201000Y78500D02*
D03*
X193500Y63500D02*
D03*
X201000Y48500D02*
D03*
X193500Y33500D02*
D03*
X201000Y18500D02*
D03*
X186000Y198500D02*
D03*
X178500Y123500D02*
D03*
X186000Y108500D02*
D03*
X178500Y93500D02*
D03*
X186000Y78500D02*
D03*
X178500Y63500D02*
D03*
X186000Y48500D02*
D03*
X178500Y33500D02*
D03*
X186000Y18500D02*
D03*
X171000Y318500D02*
D03*
Y228500D02*
D03*
X163500Y213500D02*
D03*
X171000Y198500D02*
D03*
X163500Y183500D02*
D03*
X171000Y168500D02*
D03*
Y138500D02*
D03*
Y108500D02*
D03*
X163500Y63500D02*
D03*
Y33500D02*
D03*
X171000Y18500D02*
D03*
X156000Y318500D02*
D03*
Y228500D02*
D03*
Y168500D02*
D03*
X148500Y153500D02*
D03*
X156000Y138500D02*
D03*
X148500Y123500D02*
D03*
Y93500D02*
D03*
X156000Y78500D02*
D03*
X148500Y63500D02*
D03*
X156000Y48500D02*
D03*
X148500Y33500D02*
D03*
X156000Y18500D02*
D03*
X133500Y363500D02*
D03*
Y243500D02*
D03*
X141000Y228500D02*
D03*
X133500Y213500D02*
D03*
X141000Y198500D02*
D03*
Y168500D02*
D03*
X133500Y153500D02*
D03*
Y93500D02*
D03*
X141000Y78500D02*
D03*
X133500Y63500D02*
D03*
X141000Y48500D02*
D03*
Y18500D02*
D03*
X118500Y363500D02*
D03*
X126000Y288500D02*
D03*
X118500Y243500D02*
D03*
X126000Y228500D02*
D03*
X118500Y213500D02*
D03*
X126000Y198500D02*
D03*
Y168500D02*
D03*
X118500Y153500D02*
D03*
X126000Y138500D02*
D03*
X118500Y93500D02*
D03*
X126000Y78500D02*
D03*
X118500Y63500D02*
D03*
Y33500D02*
D03*
X103500Y363500D02*
D03*
X111000Y318500D02*
D03*
Y198500D02*
D03*
Y168500D02*
D03*
X103500Y123500D02*
D03*
X111000Y108500D02*
D03*
X103500Y93500D02*
D03*
X111000Y78500D02*
D03*
X103500Y63500D02*
D03*
Y33500D02*
D03*
X96000Y318500D02*
D03*
X88500Y303500D02*
D03*
X96000Y228500D02*
D03*
Y198500D02*
D03*
Y168500D02*
D03*
X88500Y123500D02*
D03*
X96000Y108500D02*
D03*
X88500Y93500D02*
D03*
X96000Y78500D02*
D03*
X88500Y63500D02*
D03*
Y33500D02*
D03*
X81000Y318500D02*
D03*
X73500Y303500D02*
D03*
X81000Y288500D02*
D03*
Y228500D02*
D03*
Y168500D02*
D03*
Y108500D02*
D03*
Y78500D02*
D03*
X73500Y63500D02*
D03*
X81000Y48500D02*
D03*
X73500Y33500D02*
D03*
X81000Y18500D02*
D03*
X66000Y318500D02*
D03*
X58500Y303500D02*
D03*
X66000Y198500D02*
D03*
Y168500D02*
D03*
Y138500D02*
D03*
X58500Y123500D02*
D03*
X66000Y108500D02*
D03*
Y78500D02*
D03*
X58500Y63500D02*
D03*
X66000Y48500D02*
D03*
X58500Y33500D02*
D03*
X66000Y18500D02*
D03*
X51000Y318500D02*
D03*
X43500Y303500D02*
D03*
Y213500D02*
D03*
X51000Y108500D02*
D03*
X43500Y93500D02*
D03*
X51000Y78500D02*
D03*
X43500Y63500D02*
D03*
X51000Y48500D02*
D03*
X43500Y33500D02*
D03*
X51000Y18500D02*
D03*
X36000Y198500D02*
D03*
X28500Y183500D02*
D03*
X36000Y168500D02*
D03*
X28500Y153500D02*
D03*
X36000Y138500D02*
D03*
X28500Y123500D02*
D03*
X36000Y108500D02*
D03*
X28500Y93500D02*
D03*
X36000Y78500D02*
D03*
X28500Y63500D02*
D03*
X36000Y48500D02*
D03*
X28500Y33500D02*
D03*
X36000Y18500D02*
D03*
X13500Y273500D02*
D03*
Y183500D02*
D03*
X21000Y168500D02*
D03*
X13500Y153500D02*
D03*
X21000Y138500D02*
D03*
Y78500D02*
D03*
X13500Y63500D02*
D03*
X21000Y48500D02*
D03*
X13500Y33500D02*
D03*
X21000Y18500D02*
D03*
X180500Y378000D02*
D03*
X182500Y290000D02*
D03*
X164500Y369000D02*
D03*
X278000Y291500D02*
D03*
Y296500D02*
D03*
X277000Y300000D02*
D03*
X275500Y306000D02*
D03*
X283500Y308000D02*
D03*
X284000Y315500D02*
D03*
X280000Y311500D02*
D03*
X274500Y321000D02*
D03*
X278500Y325500D02*
D03*
D51*
X332000Y129500D02*
D03*
X371500Y363000D02*
D03*
X314000Y22000D02*
D03*
X295000Y19500D02*
D03*
X298000Y7000D02*
D03*
X237000Y282000D02*
D03*
X203000Y337000D02*
D03*
X264500Y281000D02*
D03*
X290000Y49000D02*
D03*
X136000Y347500D02*
D03*
X153500Y368000D02*
D03*
X220000Y369500D02*
D03*
X228000Y353500D02*
D03*
X252500Y337000D02*
D03*
X165500Y244500D02*
D03*
X165000Y313000D02*
D03*
X202500Y265000D02*
D03*
X158000Y268000D02*
D03*
X342000Y115000D02*
D03*
X314000Y376000D02*
D03*
X123500Y366500D02*
D03*
X263500Y244500D02*
D03*
X299500Y197000D02*
D03*
X208000Y199000D02*
D03*
X136000Y55000D02*
D03*
X102500Y199000D02*
D03*
X128500Y105000D02*
D03*
X162500D02*
D03*
X132000Y284500D02*
D03*
X178000Y286000D02*
D03*
X132000Y311000D02*
D03*
X224000Y177000D02*
D03*
X80000Y346500D02*
D03*
X127500Y344000D02*
D03*
X198500Y352000D02*
D03*
X163500Y336000D02*
D03*
X178000Y357000D02*
D03*
X55500Y235000D02*
D03*
X43000Y240000D02*
D03*
X202500Y247000D02*
D03*
X261500Y256000D02*
D03*
X173000Y338000D02*
D03*
X178500Y347500D02*
D03*
X252500Y375000D02*
D03*
X145000Y315000D02*
D03*
Y284500D02*
D03*
X116000Y316000D02*
D03*
X165000Y346500D02*
D03*
X245500Y209000D02*
D03*
X323500Y155000D02*
D03*
X301500Y52500D02*
D03*
X148500Y242500D02*
D03*
X120500Y260000D02*
D03*
X330000Y138000D02*
D03*
X266000Y73000D02*
D03*
X162500Y117500D02*
D03*
X248000Y73500D02*
D03*
X261000Y115000D02*
D03*
X262000Y226000D02*
D03*
X313500Y279000D02*
D03*
X338000Y303000D02*
D03*
Y314500D02*
D03*
X199000Y225500D02*
D03*
X234000Y73500D02*
D03*
X257000Y50000D02*
D03*
X265500Y58500D02*
D03*
X343500Y54500D02*
D03*
X318000Y55000D02*
D03*
X110000Y123500D02*
D03*
X216500Y123000D02*
D03*
X313000Y121000D02*
D03*
X122000Y184000D02*
D03*
X89000Y149000D02*
D03*
X226000Y192000D02*
D03*
X196500Y149000D02*
D03*
X298000Y279000D02*
D03*
X292000Y148000D02*
D03*
X111500Y240000D02*
D03*
X217000Y241500D02*
D03*
X308000Y240500D02*
D03*
D52*
X277500Y150000D02*
D03*
X185000D02*
D03*
X74000Y150500D02*
D03*
X271000Y224000D02*
D03*
X185000Y227000D02*
D03*
X74500Y229000D02*
D03*
M02*
