M48
;Layer_Color=9474304
;FILE_FORMAT=2:5
INCH,TZ
;TYPE=PLATED
T1F00S00C0.00500
T2F00S00C0.00800
T3F00S00C0.01000
T4F00S00C0.01200
T5F00S00C0.01300
T6F00S00C0.02000
T7F00S00C0.03000
T8F00S00C0.03543
%
T01
X180500Y378000
T02
X306000Y48500
X321000
X336000
X343500Y63500
X358500
X366000Y78500
Y48500
X358500Y33500
X343500
X366000Y18500
X306000Y78500
X298500Y63500
X283500
X268500
X276000Y78500
X246000
X231000
X216000
X201000
X186000
X193500Y63500
X208500
X223500
X231000Y48500
X246000
X253500Y33500
X238500
X223500
X208500
X193500
X178500
X163500
X148500
X156000Y48500
X163500Y63500
X178500
X186000Y48500
X201000
X216000
X231000Y18500
X246000
X261000
X276000
X298500Y33500
X201000Y18500
X186000
X171000
X156000
X148500Y63500
X156000Y78500
X141000
X126000
X111000
X96000
X81000
X66000
X51000
X36000
X21000
X28500Y63500
X43500
X58500
X73500
X88500
X103500
X118500
X133500
X141000Y48500
Y18500
X118500Y33500
X103500
X88500
X73500
X58500
X43500
X28500
X13500
X21000Y48500
X36000
X51000
X66000
X81000
Y18500
X66000
X51000
X36000
X21000
X13500Y63500
X28500Y93500
X43500
X51000Y108500
X66000
X81000
X96000
X111000
X118500Y93500
X133500
X103500
X88500
Y123500
X103500
X126000Y138500
X133500Y153500
X118500
X126000Y168500
X141000
Y198500
X126000
X111000
X96000
Y228500
X81000
X126000
X141000
X133500Y243500
X118500
Y213500
X133500
X111000Y168500
X96000
X81000
X66000
Y198500
X36000
X43500Y213500
X28500Y183500
X13500
X21000Y168500
X36000
X28500Y153500
X13500
X21000Y138500
X36000
X28500Y123500
X36000Y108500
X58500Y123500
X66000Y138500
X156000
X171000
X178500Y123500
X193500
X208500
X223500
X238500
X253500
X268500
X276000Y108500
X283500Y93500
X298500
Y123500
X283500Y153500
X268500
X253500
X231000Y138500
X246000Y108500
X253500Y93500
X238500
X223500
X208500
X193500
X178500
X186000Y108500
X201000
X216000
X171000
X148500Y123500
Y153500
X156000Y168500
X171000
X163500Y183500
X171000Y198500
X186000
X201000
X216000
X231000
X238500Y213500
X223500
Y243500
X238500
X253500
X208500
X171000Y228500
X156000
X163500Y213500
X201000Y168500
X216000
X223500Y183500
X268500
X283500
X298500
X261000Y198500
X148500Y93500
X313500
X343500
X358500
X366000Y108500
X358500Y123500
X343500
X366000Y138500
X358500Y153500
X366000Y168500
X358500Y183500
X343500
X328500
X313500
X321000Y198500
X336000
X343500Y213500
X358500
X366000Y228500
X358500Y243500
X343500
X328500
X313500
Y213500
X306000Y198500
Y168500
X321000
X336000
X328500Y153500
X366000Y198500
Y258500
X358500Y273500
X343500
X336000Y288500
X366000
Y318500
X358500Y333500
X366000Y348500
X351000
X336000
X306000
X313500Y333500
X321000Y258500
X336000
X261000Y288500
X246000
X238500Y273500
X223500
X201000Y258500
X208500Y333500
X231000Y348500
X261000
X276000
X171000Y318500
X156000
X111000
X96000
X81000
X66000
X51000
X58500Y303500
X73500
X88500
X81000Y288500
X126000
X133500Y363500
X118500
X103500
X43500Y303500
X13500Y273500
T03
X182500Y290000
X164500Y369000
T04
X280000Y311500
X284000Y315500
X274500Y321000
T05
X278000Y291500
Y296500
X277000Y300000
X275500Y306000
X283500Y308000
X278500Y325500
T06
X74000Y150500
X74500Y229000
X185000Y227000
Y150000
X277500
X271000Y224000
T07
X314000Y22000
X318000Y55000
X343500Y54500
X301500Y52500
X290000Y49000
X257000Y50000
X265500Y58500
X266000Y73000
X248000Y73500
X234000
X295000Y19500
X298000Y7000
X136000Y55000
X128500Y105000
X110000Y123500
X89000Y149000
X102500Y199000
X122000Y184000
X111500Y240000
X55500Y235000
X43000Y240000
X148500Y242500
X165500Y244500
X202500Y247000
X217000Y241500
X199000Y225500
X208000Y199000
X226000Y192000
X224000Y177000
X245500Y209000
X262000Y226000
X263500Y244500
X299500Y197000
X292000Y148000
X261000Y115000
X216500Y123000
X196500Y149000
X162500Y117500
Y105000
X313000Y121000
X332000Y129500
X330000Y138000
X323500Y155000
X342000Y115000
X308000Y240500
X313500Y279000
X338000Y303000
Y314500
X371500Y363000
X314000Y376000
X252500Y375000
X220000Y369500
X228000Y353500
X198500Y352000
X203000Y337000
X173000Y338000
X163500Y336000
X165000Y346500
X178500Y347500
X178000Y357000
X153500Y368000
X165000Y313000
X178000Y286000
X158000Y268000
X202500Y265000
X237000Y282000
X264500Y281000
X261500Y256000
X298000Y279000
X252500Y337000
X136000Y347500
X127500Y344000
X123500Y366500
X116000Y316000
X132000Y311000
X145000Y315000
Y284500
X132000
X120500Y260000
X80000Y346500
T08
X13000Y196000
Y206000
Y216000
Y226000
Y236000
Y246000
X23000
Y236000
Y226000
Y216000
Y206000
Y196000
Y256000
Y266000
X13000
Y256000
Y301500
Y311500
Y321500
Y331500
Y341500
Y351500
Y361500
Y371500
X23000
Y361500
Y351500
Y341500
Y331500
Y321500
Y311500
Y301500
M30
