G04*
G04 #@! TF.GenerationSoftware,Altium Limited,Altium Designer,19.1.3 (30)*
G04*
G04 Layer_Color=65535*
%FSLAX25Y25*%
%MOIN*%
G70*
G01*
G75*
%ADD10C,0.00787*%
%ADD11C,0.01000*%
%ADD12C,0.00800*%
%ADD13C,0.00600*%
%ADD14C,0.00984*%
%ADD15C,0.00591*%
%ADD16C,0.00500*%
%ADD17C,0.00700*%
D10*
X116902Y18500D02*
G03*
X116902Y18500I-12402J0D01*
G01*
X117902Y49500D02*
G03*
X117902Y49500I-12402J0D01*
G01*
X251713Y346500D02*
G03*
X253287Y346500I787J0D01*
G01*
X8000Y191000D02*
X28000D01*
X8000Y271000D02*
X28000D01*
X8000Y191000D02*
Y271000D01*
X28000Y191000D02*
Y271000D01*
X8000Y296500D02*
X28000D01*
X8000Y376500D02*
X28000D01*
X8000Y296500D02*
Y376500D01*
X28000Y296500D02*
Y376500D01*
X242437Y346575D02*
X251500D01*
X253500D02*
X262000D01*
Y289000D02*
Y346575D01*
X248328Y289000D02*
X258109D01*
X242437D02*
Y346575D01*
Y289000D02*
X248328D01*
X258109D02*
X262000D01*
D11*
X320500Y352500D02*
G03*
X320500Y352500I-500J0D01*
G01*
X348500Y333500D02*
G03*
X368500Y333500I10000J6000D01*
G01*
X343500Y327500D02*
G03*
X346500Y324500I3000J0D01*
G01*
X370500D02*
G03*
X373500Y327500I0J3000D01*
G01*
X346500Y354500D02*
G03*
X343500Y351500I0J-3000D01*
G01*
X373500D02*
G03*
X370500Y354500I-3000J0D01*
G01*
X368500Y345500D02*
G03*
X348500Y345500I-10000J-6000D01*
G01*
X360500Y339500D02*
G03*
X356500Y339500I-2000J0D01*
G01*
X364500D02*
G03*
X360500Y339500I-2000J0D01*
G01*
X356500D02*
G03*
X352500Y339500I-2000J0D01*
G01*
X338874Y6000D02*
G03*
X338874Y6000I-500J0D01*
G01*
X360000Y152000D02*
G03*
X360000Y152000I-500J0D01*
G01*
X267000Y143000D02*
G03*
X267000Y143000I-500J0D01*
G01*
X168500Y130555D02*
G03*
X168500Y130555I-500J0D01*
G01*
X211500Y63000D02*
G03*
X211500Y63000I-500J0D01*
G01*
X91508Y31492D02*
X111390D01*
X117492Y25390D01*
Y11216D02*
Y25390D01*
X91508Y5508D02*
X111784D01*
X91508D02*
Y31492D01*
X111784Y5508D02*
X117492Y11216D01*
X92508Y62492D02*
X112390D01*
X118492Y56390D01*
Y42217D02*
Y56390D01*
X92508Y36508D02*
X112784D01*
X92508D02*
Y62492D01*
X112784Y36508D02*
X118492Y42217D01*
X293500Y205811D02*
Y230811D01*
X313500Y205811D02*
Y230811D01*
X303401Y205500D02*
X303500Y206000D01*
X319500Y328370D02*
Y349000D01*
X329850Y328370D02*
X331500D01*
Y349000D01*
X319500Y328370D02*
X321248D01*
X329500Y349000D02*
X331500D01*
X329500Y345500D02*
X330815D01*
X319500Y349000D02*
X321500D01*
X320185Y345500D02*
X321500D01*
X324300Y337700D02*
X325500Y340200D01*
X326700Y338000D01*
X325300D02*
X326700D01*
X325300D02*
X325500Y339090D01*
X373500Y327500D02*
Y334500D01*
X346500Y324500D02*
X370500D01*
X343500Y327500D02*
Y334500D01*
X373500Y344500D02*
Y351500D01*
X346500Y354500D02*
X370500D01*
X343500Y344500D02*
Y351500D01*
X364500Y339500D02*
X368500D01*
X348500D02*
X352500D01*
X107055Y207831D02*
X107154Y208331D01*
X117154Y208142D02*
Y233142D01*
X97154Y208142D02*
Y233142D01*
X337874Y8500D02*
X341374D01*
X304374Y8000D02*
X307874D01*
X310874Y29500D02*
X334374D01*
X364500Y295200D02*
X372039D01*
X351961D02*
X359500D01*
X351961Y307800D02*
X359500D01*
X364500D02*
X372039D01*
Y295200D02*
Y307800D01*
X351961Y295200D02*
Y307800D01*
X212248Y207831D02*
X212346Y208331D01*
X222346Y208142D02*
Y233142D01*
X202346Y208142D02*
Y233142D01*
X359000Y127870D02*
Y148500D01*
X369350Y127870D02*
X371000D01*
Y148500D01*
X359000Y127870D02*
X360748D01*
X369000Y148500D02*
X371000D01*
X369000Y145000D02*
X370315D01*
X359000Y148500D02*
X361000D01*
X359685Y145000D02*
X361000D01*
X363800Y137200D02*
X365000Y139700D01*
X366200Y137500D01*
X364800D02*
X366200D01*
X364800D02*
X365000Y138590D01*
X307902Y130000D02*
X308000Y130500D01*
X318000Y130311D02*
Y155311D01*
X298000Y130311D02*
Y155311D01*
X267000Y146500D02*
Y167130D01*
X255000D02*
X256650D01*
X255000Y146500D02*
Y167130D01*
X265252D02*
X267000D01*
X255000Y146500D02*
X257000D01*
X255685Y150000D02*
X257000D01*
X265000Y146500D02*
X267000D01*
X265000Y150000D02*
X266315D01*
X261000Y155300D02*
X262200Y157800D01*
X259800Y157500D02*
X261000Y155300D01*
X259800Y157500D02*
X261200D01*
X261000Y156410D02*
X261200Y157500D01*
X211748Y130831D02*
X211846Y131331D01*
X221846Y131142D02*
Y156142D01*
X201846Y131142D02*
Y156142D01*
X168500Y134055D02*
Y154685D01*
X156500D02*
X158150D01*
X156500Y134055D02*
Y154685D01*
X166752D02*
X168500D01*
X156500Y134055D02*
X158500D01*
X157185Y137555D02*
X158500D01*
X166500Y134055D02*
X168500D01*
X166500Y137555D02*
X167815D01*
X162500Y142855D02*
X163700Y145355D01*
X161300Y145055D02*
X162500Y142855D01*
X161300Y145055D02*
X162700D01*
X162500Y143965D02*
X162700Y145055D01*
X106055Y130831D02*
X106154Y131331D01*
X116154Y131142D02*
Y156142D01*
X96154Y131142D02*
Y156142D01*
X210500Y38870D02*
Y59500D01*
X220850Y38870D02*
X222500D01*
Y59500D01*
X210500Y38870D02*
X212248D01*
X220500Y59500D02*
X222500D01*
X220500Y56000D02*
X221815D01*
X210500Y59500D02*
X212500D01*
X211185Y56000D02*
X212500D01*
X215300Y48200D02*
X216500Y50700D01*
X217700Y48500D01*
X216300D02*
X217700D01*
X216300D02*
X216500Y49590D01*
X136666Y48332D02*
X135999Y48999D01*
X134667D01*
X134000Y48332D01*
Y45666D01*
X134667Y45000D01*
X135999D01*
X136666Y45666D01*
X140665Y45000D02*
X137999D01*
X140665Y47666D01*
Y48332D01*
X139998Y48999D01*
X138665D01*
X137999Y48332D01*
X141997Y45666D02*
X142664Y45000D01*
X143997D01*
X144663Y45666D01*
Y48332D01*
X143997Y48999D01*
X142664D01*
X141997Y48332D01*
Y47666D01*
X142664Y46999D01*
X144663D01*
X77189Y30999D02*
X79855D01*
X78522D01*
Y27000D01*
X83854Y30332D02*
X83187Y30999D01*
X81854D01*
X81188Y30332D01*
Y27666D01*
X81854Y27000D01*
X83187D01*
X83854Y27666D01*
X85186Y30332D02*
X85853Y30999D01*
X87186D01*
X87852Y30332D01*
Y29666D01*
X87186Y28999D01*
X86519D01*
X87186D01*
X87852Y28333D01*
Y27666D01*
X87186Y27000D01*
X85853D01*
X85186Y27666D01*
X79689Y62999D02*
X82355D01*
X81022D01*
Y59000D01*
X86353Y62332D02*
X85687Y62999D01*
X84354D01*
X83688Y62332D01*
Y59666D01*
X84354Y59000D01*
X85687D01*
X86353Y59666D01*
X90352Y59000D02*
X87686D01*
X90352Y61666D01*
Y62332D01*
X89686Y62999D01*
X88353D01*
X87686Y62332D01*
X100366Y239230D02*
Y241896D01*
X99699Y242563D01*
X98366D01*
X97700Y241896D01*
Y239230D01*
X98366Y238564D01*
X99699D01*
X99033Y239897D02*
X100366Y238564D01*
X99699D02*
X100366Y239230D01*
X101699Y238564D02*
X103032D01*
X102365D01*
Y242563D01*
X101699Y241896D01*
X248000Y356030D02*
Y352698D01*
X248666Y352031D01*
X249999D01*
X250666Y352698D01*
Y356030D01*
X254664Y352031D02*
X251999D01*
X254664Y354697D01*
Y355364D01*
X253998Y356030D01*
X252665D01*
X251999Y355364D01*
X304874Y36999D02*
Y33666D01*
X305540Y33000D01*
X306873D01*
X307540Y33666D01*
Y36999D01*
X308873Y33000D02*
X310206D01*
X309539D01*
Y36999D01*
X308873Y36332D01*
X352500Y315299D02*
X355166D01*
X353833D01*
Y311300D01*
X359165Y314632D02*
X358498Y315299D01*
X357165D01*
X356499Y314632D01*
Y311966D01*
X357165Y311300D01*
X358498D01*
X359165Y311966D01*
X360497Y311300D02*
X361830D01*
X361164D01*
Y315299D01*
X360497Y314632D01*
X156000Y10000D02*
Y13999D01*
X157999D01*
X158666Y13332D01*
Y11999D01*
X157999Y11333D01*
X156000D01*
X157333D02*
X158666Y10000D01*
X159999Y13332D02*
X160665Y13999D01*
X161998D01*
X162664Y13332D01*
Y12666D01*
X161998Y11999D01*
X161332D01*
X161998D01*
X162664Y11333D01*
Y10667D01*
X161998Y10000D01*
X160665D01*
X159999Y10667D01*
X163997Y13332D02*
X164664Y13999D01*
X165997D01*
X166663Y13332D01*
Y10667D01*
X165997Y10000D01*
X164664D01*
X163997Y10667D01*
Y13332D01*
X156000Y28000D02*
Y31999D01*
X157999D01*
X158666Y31332D01*
Y29999D01*
X157999Y29333D01*
X156000D01*
X157333D02*
X158666Y28000D01*
X162664D02*
X159999D01*
X162664Y30666D01*
Y31332D01*
X161998Y31999D01*
X160665D01*
X159999Y31332D01*
X163997Y28666D02*
X164664Y28000D01*
X165997D01*
X166663Y28666D01*
Y31332D01*
X165997Y31999D01*
X164664D01*
X163997Y31332D01*
Y30666D01*
X164664Y29999D01*
X166663D01*
X134618Y10500D02*
Y14499D01*
X136618D01*
X137284Y13832D01*
Y12499D01*
X136618Y11833D01*
X134618D01*
X135951D02*
X137284Y10500D01*
X141283D02*
X138617D01*
X141283Y13166D01*
Y13832D01*
X140616Y14499D01*
X139283D01*
X138617Y13832D01*
X142615D02*
X143282Y14499D01*
X144615D01*
X145281Y13832D01*
Y13166D01*
X144615Y12499D01*
X145281Y11833D01*
Y11167D01*
X144615Y10500D01*
X143282D01*
X142615Y11167D01*
Y11833D01*
X143282Y12499D01*
X142615Y13166D01*
Y13832D01*
X143282Y12499D02*
X144615D01*
X313500Y111541D02*
Y115539D01*
X315500D01*
X316166Y114873D01*
Y113540D01*
X315500Y112873D01*
X313500D01*
X314833D02*
X316166Y111541D01*
X320165D02*
X317499D01*
X320165Y114206D01*
Y114873D01*
X319498Y115539D01*
X318165D01*
X317499Y114873D01*
X321498Y115539D02*
X324164D01*
Y114873D01*
X321498Y112207D01*
Y111541D01*
X250500Y198000D02*
Y201999D01*
X252499D01*
X253166Y201332D01*
Y199999D01*
X252499Y199333D01*
X250500D01*
X251833D02*
X253166Y198000D01*
X257165D02*
X254499D01*
X257165Y200666D01*
Y201332D01*
X256498Y201999D01*
X255165D01*
X254499Y201332D01*
X261163Y201999D02*
X259830Y201332D01*
X258497Y199999D01*
Y198667D01*
X259164Y198000D01*
X260497D01*
X261163Y198667D01*
Y199333D01*
X260497Y199999D01*
X258497D01*
X151000Y196559D02*
Y200558D01*
X152999D01*
X153665Y199892D01*
Y198559D01*
X152999Y197892D01*
X151000D01*
X152333D02*
X153665Y196559D01*
X157664D02*
X154998D01*
X157664Y199225D01*
Y199892D01*
X156998Y200558D01*
X155665D01*
X154998Y199892D01*
X161663Y200558D02*
X158997D01*
Y198559D01*
X160330Y199225D01*
X160996D01*
X161663Y198559D01*
Y197226D01*
X160996Y196559D01*
X159663D01*
X158997Y197226D01*
X338000Y152000D02*
Y155999D01*
X339999D01*
X340666Y155332D01*
Y153999D01*
X339999Y153333D01*
X338000D01*
X339333D02*
X340666Y152000D01*
X344665D02*
X341999D01*
X344665Y154666D01*
Y155332D01*
X343998Y155999D01*
X342665D01*
X341999Y155332D01*
X347997Y152000D02*
Y155999D01*
X345997Y153999D01*
X348663D01*
X237000Y160000D02*
Y163999D01*
X238999D01*
X239666Y163332D01*
Y161999D01*
X238999Y161333D01*
X237000D01*
X238333D02*
X239666Y160000D01*
X243665D02*
X240999D01*
X243665Y162666D01*
Y163332D01*
X242998Y163999D01*
X241665D01*
X240999Y163332D01*
X244997D02*
X245664Y163999D01*
X246997D01*
X247663Y163332D01*
Y162666D01*
X246997Y161999D01*
X246330D01*
X246997D01*
X247663Y161333D01*
Y160667D01*
X246997Y160000D01*
X245664D01*
X244997Y160667D01*
X133500Y153055D02*
Y157054D01*
X135499D01*
X136166Y156387D01*
Y155054D01*
X135499Y154388D01*
X133500D01*
X134833D02*
X136166Y153055D01*
X140164D02*
X137499D01*
X140164Y155721D01*
Y156387D01*
X139498Y157054D01*
X138165D01*
X137499Y156387D01*
X144163Y153055D02*
X141497D01*
X144163Y155721D01*
Y156387D01*
X143497Y157054D01*
X142164D01*
X141497Y156387D01*
X276000Y143000D02*
Y146999D01*
X277999D01*
X278666Y146332D01*
Y144999D01*
X277999Y144333D01*
X276000D01*
X277333D02*
X278666Y143000D01*
X282664D02*
X279999D01*
X282664Y145666D01*
Y146332D01*
X281998Y146999D01*
X280665D01*
X279999Y146332D01*
X283997Y143000D02*
X285330D01*
X284664D01*
Y146999D01*
X283997Y146332D01*
X183500Y143500D02*
Y147499D01*
X185499D01*
X186166Y146832D01*
Y145499D01*
X185499Y144833D01*
X183500D01*
X184833D02*
X186166Y143500D01*
X190164D02*
X187499D01*
X190164Y146166D01*
Y146832D01*
X189498Y147499D01*
X188165D01*
X187499Y146832D01*
X191497D02*
X192164Y147499D01*
X193497D01*
X194163Y146832D01*
Y144167D01*
X193497Y143500D01*
X192164D01*
X191497Y144167D01*
Y146832D01*
X73000Y142000D02*
Y145999D01*
X74999D01*
X75666Y145332D01*
Y143999D01*
X74999Y143333D01*
X73000D01*
X74333D02*
X75666Y142000D01*
X76999D02*
X78332D01*
X77665D01*
Y145999D01*
X76999Y145332D01*
X80331Y142666D02*
X80997Y142000D01*
X82330D01*
X82997Y142666D01*
Y145332D01*
X82330Y145999D01*
X80997D01*
X80331Y145332D01*
Y144666D01*
X80997Y143999D01*
X82997D01*
X337959Y170000D02*
Y173999D01*
X339959D01*
X340625Y173333D01*
Y172000D01*
X339959Y171333D01*
X337959D01*
X339292D02*
X340625Y170000D01*
X341958D02*
X343291D01*
X342624D01*
Y173999D01*
X341958Y173333D01*
X345290D02*
X345957Y173999D01*
X347290D01*
X347956Y173333D01*
Y172666D01*
X347290Y172000D01*
X347956Y171333D01*
Y170667D01*
X347290Y170000D01*
X345957D01*
X345290Y170667D01*
Y171333D01*
X345957Y172000D01*
X345290Y172666D01*
Y173333D01*
X345957Y172000D02*
X347290D01*
X237059Y176000D02*
Y179998D01*
X239058D01*
X239724Y179332D01*
Y177999D01*
X239058Y177333D01*
X237059D01*
X238392D02*
X239724Y176000D01*
X241057D02*
X242390D01*
X241724D01*
Y179998D01*
X241057Y179332D01*
X244390Y179998D02*
X247056D01*
Y179332D01*
X244390Y176666D01*
Y176000D01*
X133500Y168055D02*
Y172054D01*
X135499D01*
X136166Y171388D01*
Y170054D01*
X135499Y169388D01*
X133500D01*
X134833D02*
X136166Y168055D01*
X137499D02*
X138832D01*
X138165D01*
Y172054D01*
X137499Y171388D01*
X143497Y172054D02*
X142164Y171388D01*
X140831Y170054D01*
Y168722D01*
X141497Y168055D01*
X142830D01*
X143497Y168722D01*
Y169388D01*
X142830Y170054D01*
X140831D01*
X269500Y218000D02*
Y221999D01*
X271499D01*
X272166Y221332D01*
Y219999D01*
X271499Y219333D01*
X269500D01*
X270833D02*
X272166Y218000D01*
X273499D02*
X274832D01*
X274165D01*
Y221999D01*
X273499Y221332D01*
X279497Y221999D02*
X276831D01*
Y219999D01*
X278164Y220666D01*
X278830D01*
X279497Y219999D01*
Y218666D01*
X278830Y218000D01*
X277497D01*
X276831Y218666D01*
X182500Y220000D02*
Y223999D01*
X184499D01*
X185166Y223332D01*
Y221999D01*
X184499Y221333D01*
X182500D01*
X183833D02*
X185166Y220000D01*
X186499D02*
X187832D01*
X187165D01*
Y223999D01*
X186499Y223332D01*
X191830Y220000D02*
Y223999D01*
X189831Y221999D01*
X192497D01*
X73000Y221000D02*
Y224999D01*
X74999D01*
X75666Y224332D01*
Y222999D01*
X74999Y222333D01*
X73000D01*
X74333D02*
X75666Y221000D01*
X76999D02*
X78332D01*
X77665D01*
Y224999D01*
X76999Y224332D01*
X80331D02*
X80997Y224999D01*
X82330D01*
X82997Y224332D01*
Y223666D01*
X82330Y222999D01*
X81664D01*
X82330D01*
X82997Y222333D01*
Y221666D01*
X82330Y221000D01*
X80997D01*
X80331Y221666D01*
X187500Y258000D02*
Y261999D01*
X189499D01*
X190166Y261332D01*
Y259999D01*
X189499Y259333D01*
X187500D01*
X188833D02*
X190166Y258000D01*
X191499D02*
X192832D01*
X192165D01*
Y261999D01*
X191499Y261332D01*
X197497Y258000D02*
X194831D01*
X197497Y260666D01*
Y261332D01*
X196830Y261999D01*
X195497D01*
X194831Y261332D01*
X187500Y270000D02*
Y273999D01*
X189499D01*
X190166Y273332D01*
Y271999D01*
X189499Y271333D01*
X187500D01*
X188833D02*
X190166Y270000D01*
X191499D02*
X192832D01*
X192165D01*
Y273999D01*
X191499Y273332D01*
X194831Y270000D02*
X196164D01*
X195497D01*
Y273999D01*
X194831Y273332D01*
X232000Y366500D02*
Y370499D01*
X233999D01*
X234666Y369832D01*
Y368499D01*
X233999Y367833D01*
X232000D01*
X233333D02*
X234666Y366500D01*
X238665Y370499D02*
X237332Y369832D01*
X235999Y368499D01*
Y367166D01*
X236665Y366500D01*
X237998D01*
X238665Y367166D01*
Y367833D01*
X237998Y368499D01*
X235999D01*
X316000Y47000D02*
Y50999D01*
X317999D01*
X318666Y50332D01*
Y48999D01*
X317999Y48333D01*
X316000D01*
X317333D02*
X318666Y47000D01*
X321998D02*
Y50999D01*
X319999Y48999D01*
X322664D01*
X342059Y47000D02*
Y50999D01*
X344059D01*
X344725Y50333D01*
Y49000D01*
X344059Y48333D01*
X342059D01*
X343392D02*
X344725Y47000D01*
X346058Y50333D02*
X346725Y50999D01*
X348057D01*
X348724Y50333D01*
Y49666D01*
X348057Y49000D01*
X347391D01*
X348057D01*
X348724Y48333D01*
Y47667D01*
X348057Y47000D01*
X346725D01*
X346058Y47667D01*
X144500Y378500D02*
Y382499D01*
X146499D01*
X147166Y381832D01*
Y380499D01*
X146499Y379833D01*
X144500D01*
X145833D02*
X147166Y378500D01*
X148499D02*
X149832D01*
X149165D01*
Y382499D01*
X148499Y381832D01*
X301166Y161467D02*
Y164132D01*
X300499Y164799D01*
X299166D01*
X298500Y164132D01*
Y161467D01*
X299166Y160800D01*
X300499D01*
X299833Y162133D02*
X301166Y160800D01*
X300499D02*
X301166Y161467D01*
X305165Y164799D02*
X303832Y164132D01*
X302499Y162799D01*
Y161467D01*
X303165Y160800D01*
X304498D01*
X305165Y161467D01*
Y162133D01*
X304498Y162799D01*
X302499D01*
X204966Y162228D02*
Y164894D01*
X204299Y165560D01*
X202966D01*
X202300Y164894D01*
Y162228D01*
X202966Y161561D01*
X204299D01*
X203633Y162894D02*
X204966Y161561D01*
X204299D02*
X204966Y162228D01*
X208964Y165560D02*
X206299D01*
Y163561D01*
X207632Y164227D01*
X208298D01*
X208964Y163561D01*
Y162228D01*
X208298Y161561D01*
X206965D01*
X206299Y162228D01*
X99273D02*
Y164894D01*
X98606Y165560D01*
X97273D01*
X96607Y164894D01*
Y162228D01*
X97273Y161561D01*
X98606D01*
X97940Y162894D02*
X99273Y161561D01*
X98606D02*
X99273Y162228D01*
X102605Y161561D02*
Y165560D01*
X100606Y163561D01*
X103272D01*
X298666Y235666D02*
Y238332D01*
X297999Y238999D01*
X296666D01*
X296000Y238332D01*
Y235666D01*
X296666Y235000D01*
X297999D01*
X297333Y236333D02*
X298666Y235000D01*
X297999D02*
X298666Y235666D01*
X299999Y238332D02*
X300665Y238999D01*
X301998D01*
X302664Y238332D01*
Y237666D01*
X301998Y236999D01*
X301332D01*
X301998D01*
X302664Y236333D01*
Y235666D01*
X301998Y235000D01*
X300665D01*
X299999Y235666D01*
X205512Y239297D02*
Y241963D01*
X204846Y242629D01*
X203513D01*
X202846Y241963D01*
Y239297D01*
X203513Y238631D01*
X204846D01*
X204179Y239964D02*
X205512Y238631D01*
X204846D02*
X205512Y239297D01*
X209511Y238631D02*
X206845D01*
X209511Y241297D01*
Y241963D01*
X208844Y242629D01*
X207512D01*
X206845Y241963D01*
X356000Y360999D02*
Y357000D01*
X358666D01*
X359999D02*
X361332D01*
X360665D01*
Y360999D01*
X359999Y360332D01*
X313501Y334000D02*
X317500D01*
Y335999D01*
X316833Y336666D01*
X314168D01*
X313501Y335999D01*
Y334000D01*
X317500Y337999D02*
X313501D01*
Y339998D01*
X314168Y340665D01*
X315501D01*
X316167Y339998D01*
Y337999D01*
Y339332D02*
X317500Y340665D01*
Y341997D02*
Y343330D01*
Y342664D01*
X313501D01*
X314168Y341997D01*
X211000Y70999D02*
Y67000D01*
X212999D01*
X213666Y67666D01*
Y70332D01*
X212999Y70999D01*
X211000D01*
X217665D02*
X214999D01*
Y68999D01*
X216332Y69666D01*
X216998D01*
X217665Y68999D01*
Y67666D01*
X216998Y67000D01*
X215665D01*
X214999Y67666D01*
X359500Y159999D02*
Y156000D01*
X361499D01*
X362166Y156667D01*
Y159332D01*
X361499Y159999D01*
X359500D01*
X365498Y156000D02*
Y159999D01*
X363499Y157999D01*
X366164D01*
X255500Y177299D02*
Y173300D01*
X257499D01*
X258166Y173967D01*
Y176632D01*
X257499Y177299D01*
X255500D01*
X259499Y176632D02*
X260165Y177299D01*
X261498D01*
X262164Y176632D01*
Y175966D01*
X261498Y175299D01*
X260832D01*
X261498D01*
X262164Y174633D01*
Y173967D01*
X261498Y173300D01*
X260165D01*
X259499Y173967D01*
X157000Y164809D02*
Y160810D01*
X158999D01*
X159666Y161477D01*
Y164143D01*
X158999Y164809D01*
X157000D01*
X163664Y160810D02*
X160999D01*
X163664Y163476D01*
Y164143D01*
X162998Y164809D01*
X161665D01*
X160999Y164143D01*
X293959Y50999D02*
Y47000D01*
X295959D01*
X296625Y47667D01*
Y50333D01*
X295959Y50999D01*
X293959D01*
X297958Y47000D02*
X299291D01*
X298624D01*
Y50999D01*
X297958Y50333D01*
X217126Y21832D02*
X216460Y22499D01*
X215127D01*
X214461Y21832D01*
Y19166D01*
X215127Y18500D01*
X216460D01*
X217126Y19166D01*
X218459Y21832D02*
X219126Y22499D01*
X220459D01*
X221125Y21832D01*
Y21166D01*
X220459Y20499D01*
X219792D01*
X220459D01*
X221125Y19833D01*
Y19166D01*
X220459Y18500D01*
X219126D01*
X218459Y19166D01*
X222458Y21832D02*
X223125Y22499D01*
X224457D01*
X225124Y21832D01*
Y19166D01*
X224457Y18500D01*
X223125D01*
X222458Y19166D01*
Y21832D01*
X137166Y31332D02*
X136499Y31999D01*
X135166D01*
X134500Y31332D01*
Y28666D01*
X135166Y28000D01*
X136499D01*
X137166Y28666D01*
X141165Y28000D02*
X138499D01*
X141165Y30666D01*
Y31332D01*
X140498Y31999D01*
X139165D01*
X138499Y31332D01*
X142497D02*
X143164Y31999D01*
X144497D01*
X145163Y31332D01*
Y30666D01*
X144497Y29999D01*
X145163Y29333D01*
Y28666D01*
X144497Y28000D01*
X143164D01*
X142497Y28666D01*
Y29333D01*
X143164Y29999D01*
X142497Y30666D01*
Y31332D01*
X143164Y29999D02*
X144497D01*
X300666Y114332D02*
X299999Y114999D01*
X298666D01*
X298000Y114332D01*
Y111667D01*
X298666Y111000D01*
X299999D01*
X300666Y111667D01*
X304664Y111000D02*
X301999D01*
X304664Y113666D01*
Y114332D01*
X303998Y114999D01*
X302665D01*
X301999Y114332D01*
X305997Y114999D02*
X308663D01*
Y114332D01*
X305997Y111667D01*
Y111000D01*
X238166Y201332D02*
X237499Y201999D01*
X236166D01*
X235500Y201332D01*
Y198667D01*
X236166Y198000D01*
X237499D01*
X238166Y198667D01*
X242164Y198000D02*
X239499D01*
X242164Y200666D01*
Y201332D01*
X241498Y201999D01*
X240165D01*
X239499Y201332D01*
X246163Y201999D02*
X244830Y201332D01*
X243497Y199999D01*
Y198667D01*
X244164Y198000D01*
X245497D01*
X246163Y198667D01*
Y199333D01*
X245497Y199999D01*
X243497D01*
X137166Y199509D02*
X136500Y200176D01*
X135167D01*
X134500Y199509D01*
Y196843D01*
X135167Y196177D01*
X136500D01*
X137166Y196843D01*
X141165Y196177D02*
X138499D01*
X141165Y198843D01*
Y199509D01*
X140498Y200176D01*
X139165D01*
X138499Y199509D01*
X145164Y200176D02*
X142498D01*
Y198176D01*
X143831Y198843D01*
X144497D01*
X145164Y198176D01*
Y196843D01*
X144497Y196177D01*
X143164D01*
X142498Y196843D01*
X340665Y138832D02*
X339999Y139498D01*
X338666D01*
X337999Y138832D01*
Y136166D01*
X338666Y135500D01*
X339999D01*
X340665Y136166D01*
X344664Y135500D02*
X341998D01*
X344664Y138165D01*
Y138832D01*
X343997Y139498D01*
X342665D01*
X341998Y138832D01*
X347996Y135500D02*
Y139498D01*
X345997Y137499D01*
X348662D01*
X240107Y146333D02*
X239441Y146999D01*
X238108D01*
X237441Y146333D01*
Y143667D01*
X238108Y143000D01*
X239441D01*
X240107Y143667D01*
X244106Y143000D02*
X241440D01*
X244106Y145666D01*
Y146333D01*
X243439Y146999D01*
X242106D01*
X241440Y146333D01*
X245439D02*
X246105Y146999D01*
X247438D01*
X248105Y146333D01*
Y145666D01*
X247438Y145000D01*
X246772D01*
X247438D01*
X248105Y144333D01*
Y143667D01*
X247438Y143000D01*
X246105D01*
X245439Y143667D01*
X136107Y141388D02*
X135441Y142054D01*
X134108D01*
X133441Y141388D01*
Y138722D01*
X134108Y138056D01*
X135441D01*
X136107Y138722D01*
X140106Y138056D02*
X137440D01*
X140106Y140721D01*
Y141388D01*
X139439Y142054D01*
X138106D01*
X137440Y141388D01*
X144105Y138056D02*
X141439D01*
X144105Y140721D01*
Y141388D01*
X143438Y142054D01*
X142105D01*
X141439Y141388D01*
X276106Y263832D02*
X275440Y264498D01*
X274107D01*
X273441Y263832D01*
Y261166D01*
X274107Y260500D01*
X275440D01*
X276106Y261166D01*
X280105Y260500D02*
X277439D01*
X280105Y263165D01*
Y263832D01*
X279439Y264498D01*
X278106D01*
X277439Y263832D01*
X281438Y260500D02*
X282771D01*
X282104D01*
Y264498D01*
X281438Y263832D01*
X276166Y278332D02*
X275499Y278999D01*
X274166D01*
X273500Y278332D01*
Y275666D01*
X274166Y275000D01*
X275499D01*
X276166Y275666D01*
X280165Y275000D02*
X277499D01*
X280165Y277666D01*
Y278332D01*
X279498Y278999D01*
X278165D01*
X277499Y278332D01*
X281497D02*
X282164Y278999D01*
X283497D01*
X284163Y278332D01*
Y275666D01*
X283497Y275000D01*
X282164D01*
X281497Y275666D01*
Y278332D01*
X233725Y277332D02*
X233058Y277998D01*
X231725D01*
X231059Y277332D01*
Y274666D01*
X231725Y274000D01*
X233058D01*
X233725Y274666D01*
X235057Y274000D02*
X236390D01*
X235724D01*
Y277998D01*
X235057Y277332D01*
X238390Y274666D02*
X239056Y274000D01*
X240389D01*
X241055Y274666D01*
Y277332D01*
X240389Y277998D01*
X239056D01*
X238390Y277332D01*
Y276665D01*
X239056Y275999D01*
X241055D01*
X144607Y356333D02*
X143941Y356999D01*
X142608D01*
X141941Y356333D01*
Y353667D01*
X142608Y353000D01*
X143941D01*
X144607Y353667D01*
X145940Y353000D02*
X147273D01*
X146606D01*
Y356999D01*
X145940Y356333D01*
X151938Y356999D02*
X150605Y356333D01*
X149272Y355000D01*
Y353667D01*
X149939Y353000D01*
X151272D01*
X151938Y353667D01*
Y354333D01*
X151272Y355000D01*
X149272D01*
X331666Y240832D02*
X330999Y241499D01*
X329666D01*
X329000Y240832D01*
Y238166D01*
X329666Y237500D01*
X330999D01*
X331666Y238166D01*
X332999Y237500D02*
X334332D01*
X333665D01*
Y241499D01*
X332999Y240832D01*
X338330Y237500D02*
Y241499D01*
X336331Y239499D01*
X338997D01*
X235166Y242832D02*
X234499Y243499D01*
X233166D01*
X232500Y242832D01*
Y240166D01*
X233166Y239500D01*
X234499D01*
X235166Y240166D01*
X236499Y239500D02*
X237832D01*
X237165D01*
Y243499D01*
X236499Y242832D01*
X239831D02*
X240497Y243499D01*
X241830D01*
X242497Y242832D01*
Y242166D01*
X241830Y241499D01*
X241164D01*
X241830D01*
X242497Y240833D01*
Y240166D01*
X241830Y239500D01*
X240497D01*
X239831Y240166D01*
X132666Y242832D02*
X131999Y243499D01*
X130666D01*
X130000Y242832D01*
Y240166D01*
X130666Y239500D01*
X131999D01*
X132666Y240166D01*
X133999Y239500D02*
X135332D01*
X134665D01*
Y243499D01*
X133999Y242832D01*
X139997Y239500D02*
X137331D01*
X139997Y242166D01*
Y242832D01*
X139330Y243499D01*
X137997D01*
X137331Y242832D01*
X323441Y297499D02*
X322941Y297999D01*
X321941D01*
X321441Y297499D01*
Y295500D01*
X321941Y295000D01*
X322941D01*
X323441Y295500D01*
X324440Y295000D02*
X325440D01*
X324940D01*
Y297999D01*
X324440Y297499D01*
X326940Y295000D02*
X327939D01*
X327439D01*
Y297999D01*
X326940Y297499D01*
X323441Y309500D02*
X322941Y309999D01*
X321941D01*
X321441Y309500D01*
Y307500D01*
X321941Y307000D01*
X322941D01*
X323441Y307500D01*
X324440D02*
X324940Y307000D01*
X325940D01*
X326440Y307500D01*
Y309500D01*
X325940Y309999D01*
X324940D01*
X324440Y309500D01*
Y309000D01*
X324940Y308500D01*
X326440D01*
X322999Y320999D02*
X322499Y321499D01*
X321500D01*
X321000Y320999D01*
Y319000D01*
X321500Y318500D01*
X322499D01*
X322999Y319000D01*
X323999Y321499D02*
X325998D01*
Y320999D01*
X323999Y319000D01*
Y318500D01*
X300166Y351332D02*
X299499Y351999D01*
X298166D01*
X297500Y351332D01*
Y348666D01*
X298166Y348000D01*
X299499D01*
X300166Y348666D01*
X304165Y351999D02*
X302832Y351332D01*
X301499Y349999D01*
Y348666D01*
X302165Y348000D01*
X303498D01*
X304165Y348666D01*
Y349333D01*
X303498Y349999D01*
X301499D01*
X315666Y370832D02*
X314999Y371499D01*
X313666D01*
X313000Y370832D01*
Y368166D01*
X313666Y367500D01*
X314999D01*
X315666Y368166D01*
X319665Y371499D02*
X316999D01*
Y369499D01*
X318332Y370166D01*
X318998D01*
X319665Y369499D01*
Y368166D01*
X318998Y367500D01*
X317665D01*
X316999Y368166D01*
X300666Y370332D02*
X299999Y370999D01*
X298666D01*
X298000Y370332D01*
Y367666D01*
X298666Y367000D01*
X299999D01*
X300666Y367666D01*
X303998Y367000D02*
Y370999D01*
X301999Y368999D01*
X304664D01*
X269166Y369832D02*
X268499Y370499D01*
X267166D01*
X266500Y369832D01*
Y367166D01*
X267166Y366500D01*
X268499D01*
X269166Y367166D01*
X270499Y369832D02*
X271165Y370499D01*
X272498D01*
X273165Y369832D01*
Y369166D01*
X272498Y368499D01*
X271832D01*
X272498D01*
X273165Y367833D01*
Y367166D01*
X272498Y366500D01*
X271165D01*
X270499Y367166D01*
X146607Y368833D02*
X145941Y369499D01*
X144608D01*
X143941Y368833D01*
Y366167D01*
X144608Y365500D01*
X145941D01*
X146607Y366167D01*
X150606Y365500D02*
X147940D01*
X150606Y368166D01*
Y368833D01*
X149939Y369499D01*
X148606D01*
X147940Y368833D01*
D12*
X144118Y38441D02*
Y43559D01*
X133882Y38441D02*
Y43559D01*
X137500D01*
X133882Y38441D02*
X137500D01*
X140500Y43559D02*
X144118D01*
X140500Y38441D02*
X144118D01*
X272823Y253941D02*
Y259059D01*
X283059Y253941D02*
Y259059D01*
X279441Y253941D02*
X283059D01*
X279441Y259059D02*
X283059D01*
X272823Y253941D02*
X276441D01*
X272823Y259059D02*
X276441D01*
X299441Y97882D02*
Y101500D01*
X304559Y97882D02*
Y101500D01*
X299441Y104500D02*
Y108118D01*
X304559Y104500D02*
Y108118D01*
X299441D02*
X304559D01*
X299441Y97882D02*
X304559D01*
X230941Y271559D02*
X234559D01*
X230941Y266441D02*
X234559D01*
X237559Y271559D02*
X241177D01*
X237559Y266441D02*
X241177D01*
Y271559D01*
X230941Y266441D02*
Y271559D01*
X155882Y25559D02*
X166118D01*
X155882Y20441D02*
Y25559D01*
Y20441D02*
X166118D01*
Y25559D01*
X155882Y8059D02*
X166118D01*
X155882Y2941D02*
Y8059D01*
Y2941D02*
X166118D01*
Y8059D01*
X134441Y8059D02*
X144677D01*
X134441Y2941D02*
Y8059D01*
Y2941D02*
X144677D01*
Y8059D01*
X141000Y20441D02*
X144618D01*
X141000Y25559D02*
X144618D01*
X134382Y20441D02*
X138000D01*
X134382Y25559D02*
X138000D01*
X134382Y20441D02*
Y25559D01*
X144618Y20441D02*
Y25559D01*
X71382Y134941D02*
X81618D01*
Y140059D01*
X71382D02*
X81618D01*
X71382Y134941D02*
Y140059D01*
X163382Y269059D02*
X167000D01*
X163382Y263941D02*
X167000D01*
X170000Y269059D02*
X173618D01*
X170000Y263941D02*
X173618D01*
Y269059D01*
X163382Y263941D02*
Y269059D01*
X162941Y257059D02*
X166559D01*
X162941Y251941D02*
X166559D01*
X169559Y257059D02*
X173177D01*
X169559Y251941D02*
X173177D01*
Y257059D01*
X162941Y251941D02*
Y257059D01*
X187382Y251941D02*
X197618D01*
Y257059D01*
X187382D02*
X197618D01*
X187382Y251941D02*
Y257059D01*
X190941Y283941D02*
X194559D01*
X190941Y289059D02*
X194559D01*
X184323Y283941D02*
X187941D01*
X184323Y289059D02*
X187941D01*
X184323Y283941D02*
Y289059D01*
X194559Y283941D02*
Y289059D01*
X229882Y365059D02*
X240118D01*
X229882Y359941D02*
Y365059D01*
Y359941D02*
X240118D01*
Y365059D01*
X325441Y288441D02*
X329059D01*
X325441Y293559D02*
X329059D01*
X318823Y288441D02*
X322441D01*
X318823Y293559D02*
X322441D01*
X318823Y288441D02*
Y293559D01*
X329059Y288441D02*
Y293559D01*
X325441Y300441D02*
X329059D01*
X325441Y305559D02*
X329059D01*
X318823Y300441D02*
X322441D01*
X318823Y305559D02*
X322441D01*
X318823Y300441D02*
Y305559D01*
X329059Y300441D02*
Y305559D01*
X318882Y317059D02*
X322500D01*
X318882Y311941D02*
X322500D01*
X325500Y317059D02*
X329118D01*
X325500Y311941D02*
X329118D01*
Y317059D01*
X318882Y311941D02*
Y317059D01*
X323500Y337445D02*
X325500Y340945D01*
X323500Y337445D02*
X327500D01*
X325500Y340945D02*
X327500Y337445D01*
X323500Y340945D02*
X327500D01*
X271000Y360441D02*
X274618D01*
X271000Y365559D02*
X274618D01*
X264382Y360441D02*
X268000D01*
X264382Y365559D02*
X268000D01*
X264382Y360441D02*
Y365559D01*
X274618Y360441D02*
Y365559D01*
X317941Y359941D02*
X321559D01*
X317941Y365059D02*
X321559D01*
X311323Y359941D02*
X314941D01*
X311323Y365059D02*
X314941D01*
X311323Y359941D02*
Y365059D01*
X321559Y359941D02*
Y365059D01*
X296382Y365059D02*
X300000D01*
X296382Y359941D02*
X300000D01*
X303000Y365059D02*
X306618D01*
X303000Y359941D02*
X306618D01*
Y365059D01*
X296382Y359941D02*
Y365059D01*
X182382Y211941D02*
X192618D01*
Y217059D01*
X182382D02*
X192618D01*
X182382Y211941D02*
Y217059D01*
X187382Y263941D02*
X197618D01*
Y269059D01*
X187382D02*
X197618D01*
X187382Y263941D02*
Y269059D01*
X184382Y312559D02*
X188000D01*
X184382Y307441D02*
X188000D01*
X191000Y312559D02*
X194618D01*
X191000Y307441D02*
X194618D01*
Y312559D01*
X184382Y307441D02*
Y312559D01*
X184441Y321059D02*
X188059D01*
X184441Y315941D02*
X188059D01*
X191059Y321059D02*
X194677D01*
X191059Y315941D02*
X194677D01*
Y321059D01*
X184441Y315941D02*
Y321059D01*
X184882Y335441D02*
X195118D01*
Y340559D01*
X184882D02*
X195118D01*
X184882Y335441D02*
Y340559D01*
X184882Y368059D02*
X195118D01*
X184882Y362941D02*
Y368059D01*
Y362941D02*
X195118D01*
Y368059D01*
X184882Y359059D02*
X195118D01*
X184882Y353941D02*
Y359059D01*
Y353941D02*
X195118D01*
Y359059D01*
X184882Y350059D02*
X195118D01*
X184882Y344941D02*
Y350059D01*
Y344941D02*
X195118D01*
Y350059D01*
X163763Y360441D02*
X174000D01*
Y365559D01*
X163763D02*
X174000D01*
X163763Y360441D02*
Y365559D01*
X163764Y377559D02*
X174000D01*
X163764Y372441D02*
Y377559D01*
Y372441D02*
X174000D01*
Y377559D01*
X148441Y358441D02*
X152059D01*
X148441Y363559D02*
X152059D01*
X141823Y358441D02*
X145441D01*
X141823Y363559D02*
X145441D01*
X141823Y358441D02*
Y363559D01*
X152059Y358441D02*
Y363559D01*
X184882Y377559D02*
X188500D01*
X184882Y372441D02*
X188500D01*
X191500Y377559D02*
X195118D01*
X191500Y372441D02*
X195118D01*
Y377559D01*
X184882Y372441D02*
Y377559D01*
X141882Y371941D02*
X152118D01*
Y377059D01*
X141882D02*
X152118D01*
X141882Y371941D02*
Y377059D01*
X341441Y38441D02*
X351677D01*
Y43559D01*
X341441D02*
X351677D01*
X341441Y38441D02*
Y43559D01*
X315382Y38441D02*
X325618D01*
Y43559D01*
X315382D02*
X325618D01*
X315382Y38441D02*
Y43559D01*
X293382Y38441D02*
X303618D01*
Y43559D01*
X293382D02*
X303618D01*
X293382Y38441D02*
Y43559D01*
X296941Y334382D02*
Y338000D01*
X302059Y334382D02*
Y338000D01*
X296941Y341000D02*
Y344618D01*
X302059Y341000D02*
Y344618D01*
X296941D02*
X302059D01*
X296941Y334382D02*
X302059D01*
X335000Y228941D02*
X338618D01*
X335000Y234059D02*
X338618D01*
X328382Y228941D02*
X332000D01*
X328382Y234059D02*
X332000D01*
X328382Y228941D02*
Y234059D01*
X338618Y228941D02*
Y234059D01*
X238500Y230941D02*
X242118D01*
X238500Y236059D02*
X242118D01*
X231881Y230941D02*
X235500D01*
X231881Y236059D02*
X235500D01*
X231881Y230941D02*
Y236059D01*
X242118Y230941D02*
Y236059D01*
X136000Y230941D02*
X139618D01*
X136000Y236059D02*
X139618D01*
X129382Y230941D02*
X133000D01*
X129382Y236059D02*
X133000D01*
X129382Y230941D02*
Y236059D01*
X139618Y230941D02*
Y236059D01*
X268882Y209441D02*
X279118D01*
Y214559D01*
X268882D02*
X279118D01*
X268882Y209441D02*
Y214559D01*
X72382Y212441D02*
X82618D01*
Y217559D01*
X72382D02*
X82618D01*
X72382Y212441D02*
Y217559D01*
X141382Y349559D02*
X145000D01*
X141382Y344441D02*
X145000D01*
X148000Y349559D02*
X151618D01*
X148000Y344441D02*
X151618D01*
Y349559D01*
X141382Y344441D02*
Y349559D01*
X272882Y271559D02*
X276500D01*
X272882Y266441D02*
X276500D01*
X279500Y271559D02*
X283118D01*
X279500Y266441D02*
X283118D01*
Y271559D01*
X272882Y266441D02*
Y271559D01*
X337382Y166559D02*
X347618D01*
X337382Y161441D02*
Y166559D01*
Y161441D02*
X347618D01*
Y166559D01*
X236441Y172559D02*
X246677D01*
X236441Y167441D02*
Y172559D01*
Y167441D02*
X246677D01*
Y172559D01*
X132882Y164615D02*
X143118D01*
X132882Y159496D02*
Y164615D01*
Y159496D02*
X143118D01*
Y164615D01*
X363000Y136945D02*
X365000Y140445D01*
X363000Y136945D02*
X367000D01*
X365000Y140445D02*
X367000Y136945D01*
X363000Y140445D02*
X367000D01*
X261000Y154555D02*
X263000Y158055D01*
X259000D02*
X263000D01*
X259000D02*
X261000Y154555D01*
X259000D02*
X263000D01*
X162500Y142110D02*
X164500Y145610D01*
X160500D02*
X164500D01*
X160500D02*
X162500Y142110D01*
X160500D02*
X164500D01*
X275382Y134441D02*
X285618D01*
Y139559D01*
X275382D02*
X285618D01*
X275382Y134441D02*
Y139559D01*
X182882Y134941D02*
X193118D01*
Y140059D01*
X182882D02*
X193118D01*
X182882Y134941D02*
Y140059D01*
X337382Y132059D02*
X340999D01*
X337382Y126941D02*
X340999D01*
X343999Y132059D02*
X347618D01*
X343999Y126941D02*
X347618D01*
Y132059D01*
X337382Y126941D02*
Y132059D01*
Y143441D02*
X347618D01*
Y148559D01*
X337382D02*
X347618D01*
X337382Y143441D02*
Y148559D01*
X236882Y139559D02*
X240500D01*
X236882Y134441D02*
X240500D01*
X243500Y139559D02*
X247118D01*
X243500Y134441D02*
X247118D01*
Y139559D01*
X236882Y134441D02*
Y139559D01*
X236382Y151441D02*
X246618D01*
Y156559D01*
X236382D02*
X246618D01*
X236382Y151441D02*
Y156559D01*
X132882Y134615D02*
X136500D01*
X132882Y129496D02*
X136500D01*
X139500Y134615D02*
X143118D01*
X139500Y129496D02*
X143118D01*
Y134615D01*
X132882Y129496D02*
Y134615D01*
X132882Y144496D02*
X143118D01*
Y149614D01*
X132882D02*
X143118D01*
X132882Y144496D02*
Y149614D01*
X214500Y47945D02*
X216500Y51445D01*
X214500Y47945D02*
X218500D01*
X216500Y51445D02*
X218500Y47945D01*
X214500Y51445D02*
X218500D01*
X318059Y97882D02*
Y108118D01*
X312941D02*
X318059D01*
X312941Y97882D02*
Y108118D01*
Y97882D02*
X318059D01*
X255059Y184382D02*
Y194618D01*
X249941D02*
X255059D01*
X249941Y184382D02*
Y194618D01*
Y184382D02*
X255059D01*
X234941Y184382D02*
Y188000D01*
X240059Y184382D02*
Y188000D01*
X234941Y191000D02*
Y194618D01*
X240059Y191000D02*
Y194618D01*
X234941D02*
X240059D01*
X234941Y184382D02*
X240059D01*
X150441Y182882D02*
Y193118D01*
Y182882D02*
X155559D01*
Y193118D01*
X150441D02*
X155559D01*
X139059Y189118D02*
Y192736D01*
X133941Y189118D02*
Y192736D01*
X139059Y182500D02*
Y186118D01*
X133941Y182500D02*
Y186118D01*
Y182500D02*
X139059D01*
X133941Y192736D02*
X139059D01*
X220500Y9941D02*
X224118D01*
X220500Y15059D02*
X224118D01*
X213882Y9941D02*
X217500D01*
X213882Y15059D02*
X217500D01*
X213882Y9941D02*
Y15059D01*
X224118Y9941D02*
Y15059D01*
X21000Y272668D02*
Y276000D01*
X24332Y272668D01*
X25165D01*
X25998Y273501D01*
Y275167D01*
X25165Y276000D01*
X11000D02*
Y274334D01*
Y275167D01*
X15998D01*
X15165Y276000D01*
X11000Y190000D02*
Y188334D01*
Y189167D01*
X15998D01*
X15165Y190000D01*
X15998Y182502D02*
Y185835D01*
X13499D01*
X14332Y184169D01*
Y183335D01*
X13499Y182502D01*
X11833D01*
X11000Y183335D01*
Y185002D01*
X11833Y185835D01*
X21000Y190000D02*
Y188334D01*
Y189167D01*
X25998D01*
X25165Y190000D01*
X25998Y182502D02*
X25165Y184169D01*
X23499Y185835D01*
X21833D01*
X21000Y185002D01*
Y183335D01*
X21833Y182502D01*
X22666D01*
X23499Y183335D01*
Y185835D01*
X21000Y378168D02*
Y381500D01*
X24332Y378168D01*
X25165D01*
X25998Y379001D01*
Y380667D01*
X25165Y381500D01*
X11000D02*
Y379834D01*
Y380667D01*
X15998D01*
X15165Y381500D01*
X11000Y295500D02*
Y293834D01*
Y294667D01*
X15998D01*
X15165Y295500D01*
X15998Y288002D02*
Y291335D01*
X13499D01*
X14332Y289669D01*
Y288836D01*
X13499Y288002D01*
X11833D01*
X11000Y288836D01*
Y290502D01*
X11833Y291335D01*
X21000Y295500D02*
Y293834D01*
Y294667D01*
X25998D01*
X25165Y295500D01*
X25998Y288002D02*
X25165Y289669D01*
X23499Y291335D01*
X21833D01*
X21000Y290502D01*
Y288836D01*
X21833Y288002D01*
X22666D01*
X23499Y288836D01*
Y291335D01*
X165882Y366500D02*
Y369499D01*
X167381D01*
X167881Y368999D01*
Y368000D01*
X167381Y367500D01*
X165882D01*
X166882D02*
X167881Y366500D01*
X170880Y369499D02*
X168881D01*
Y368000D01*
X169881Y368499D01*
X170380D01*
X170880Y368000D01*
Y367000D01*
X170380Y366500D01*
X169381D01*
X168881Y367000D01*
X165559Y274500D02*
X165059Y274999D01*
X164059D01*
X163559Y274500D01*
Y272500D01*
X164059Y272000D01*
X165059D01*
X165559Y272500D01*
X166558Y272000D02*
X167558D01*
X167058D01*
Y274999D01*
X166558Y274500D01*
X169058D02*
X169557Y274999D01*
X170557D01*
X171057Y274500D01*
Y274000D01*
X170557Y273500D01*
X171057Y273000D01*
Y272500D01*
X170557Y272000D01*
X169557D01*
X169058Y272500D01*
Y273000D01*
X169557Y273500D01*
X169058Y274000D01*
Y274500D01*
X169557Y273500D02*
X170557D01*
X165618Y260999D02*
X165118Y261499D01*
X164118D01*
X163618Y260999D01*
Y259000D01*
X164118Y258500D01*
X165118D01*
X165618Y259000D01*
X166617Y258500D02*
X167617D01*
X167117D01*
Y261499D01*
X166617Y260999D01*
X169116Y261499D02*
X171116D01*
Y260999D01*
X169116Y259000D01*
Y258500D01*
D13*
X139000Y40100D02*
Y41900D01*
X138700Y41000D02*
X139000D01*
X139300D01*
X277941Y255600D02*
Y257400D01*
Y256500D02*
X278241D01*
X277641D02*
X277941D01*
X302000Y102700D02*
Y103000D01*
Y103300D01*
X301100Y103000D02*
X302900D01*
X235759Y269000D02*
X236059D01*
X236359D01*
X236059Y268100D02*
Y269900D01*
X139500Y23000D02*
X139800D01*
X139200D02*
X139500D01*
Y22100D02*
Y23900D01*
X168200Y266500D02*
X168500D01*
X168800D01*
X168500Y265600D02*
Y267400D01*
X167759Y254500D02*
X168059D01*
X168359D01*
X168059Y253600D02*
Y255400D01*
X189441Y286500D02*
X189741D01*
X189141D02*
X189441D01*
Y285600D02*
Y287400D01*
X323941Y291000D02*
X324241D01*
X323641D02*
X323941D01*
Y290100D02*
Y291900D01*
Y303000D02*
X324241D01*
X323641D02*
X323941D01*
Y302100D02*
Y303900D01*
X323700Y314500D02*
X324000D01*
X324300D01*
X324000Y313600D02*
Y315400D01*
X269500Y363000D02*
X269800D01*
X269200D02*
X269500D01*
Y362100D02*
Y363900D01*
X316441Y362500D02*
X316741D01*
X316141D02*
X316441D01*
Y361600D02*
Y363400D01*
X301200Y362500D02*
X301500D01*
X301800D01*
X301500Y361600D02*
Y363400D01*
X189200Y310000D02*
X189500D01*
X189800D01*
X189500Y309100D02*
Y310900D01*
X189259Y318500D02*
X189559D01*
X189859D01*
X189559Y317600D02*
Y319400D01*
X146941Y361000D02*
X147241D01*
X146641D02*
X146941D01*
Y360100D02*
Y361900D01*
X189700Y375000D02*
X190000D01*
X190300D01*
X190000Y374100D02*
Y375900D01*
X299500Y339200D02*
Y339500D01*
Y339800D01*
X298600Y339500D02*
X300400D01*
X362500Y301500D02*
X364000D01*
X360000D02*
X361500D01*
Y299000D02*
Y304000D01*
X362500Y299000D02*
Y304000D01*
X333500Y231500D02*
X333800D01*
X333200D02*
X333500D01*
Y230600D02*
Y232400D01*
X237000Y233500D02*
X237300D01*
X236700D02*
X237000D01*
Y232600D02*
Y234400D01*
X134500Y233500D02*
X134800D01*
X134200D02*
X134500D01*
Y232600D02*
Y234400D01*
X146200Y347000D02*
X146500D01*
X146800D01*
X146500Y346100D02*
Y347900D01*
X277700Y269000D02*
X278000D01*
X278300D01*
X278000Y268100D02*
Y269900D01*
X342199Y129500D02*
X342499D01*
X342799D01*
X342499Y128600D02*
Y130400D01*
X241700Y137000D02*
X242000D01*
X242300D01*
X242000Y136100D02*
Y137900D01*
X137700Y132055D02*
X138000D01*
X138300D01*
X138000Y131155D02*
Y132955D01*
X237500Y189200D02*
Y189500D01*
Y189800D01*
X236600Y189500D02*
X238400D01*
X136500Y187618D02*
Y187918D01*
Y187318D02*
Y187618D01*
X135600D02*
X137400D01*
X219000Y12500D02*
X219300D01*
X218700D02*
X219000D01*
Y11600D02*
Y13400D01*
D14*
X341374Y8626D02*
Y16500D01*
X304374Y8126D02*
Y16000D01*
D15*
X3099Y381149D02*
X2049D01*
X2574D01*
Y378525D01*
X2049Y378000D01*
X1525D01*
X1000Y378525D01*
X4149Y378000D02*
Y381149D01*
X5723D01*
X6248Y380624D01*
Y379574D01*
X5723Y379049D01*
X4149D01*
X7297Y378000D02*
X8347D01*
X7822D01*
Y381149D01*
X7297Y380624D01*
D16*
X3333Y274499D02*
X2667D01*
X3000D01*
Y272833D01*
X2667Y272500D01*
X2333D01*
X2000Y272833D01*
X3999Y272500D02*
Y274499D01*
X4999D01*
X5332Y274166D01*
Y273500D01*
X4999Y273166D01*
X3999D01*
X7332Y272500D02*
X5999D01*
X7332Y273833D01*
Y274166D01*
X6998Y274499D01*
X6332D01*
X5999Y274166D01*
X185500Y341500D02*
Y343499D01*
X186500D01*
X186833Y343166D01*
Y342500D01*
X186500Y342166D01*
X185500D01*
X186166D02*
X186833Y341500D01*
X187499D02*
X188166D01*
X187833D01*
Y343499D01*
X187499Y343166D01*
X189165D02*
X189499Y343499D01*
X190165D01*
X190498Y343166D01*
Y341833D01*
X190165Y341500D01*
X189499D01*
X189165Y341833D01*
Y343166D01*
X187000Y369000D02*
Y370999D01*
X188000D01*
X188333Y370666D01*
Y370000D01*
X188000Y369666D01*
X187000D01*
X187666D02*
X188333Y369000D01*
X188999Y369333D02*
X189333Y369000D01*
X189999D01*
X190332Y369333D01*
Y370666D01*
X189999Y370999D01*
X189333D01*
X188999Y370666D01*
Y370333D01*
X189333Y370000D01*
X190332D01*
X188000Y360000D02*
Y361999D01*
X189000D01*
X189333Y361666D01*
Y361000D01*
X189000Y360666D01*
X188000D01*
X188666D02*
X189333Y360000D01*
X189999Y361666D02*
X190333Y361999D01*
X190999D01*
X191332Y361666D01*
Y361333D01*
X190999Y361000D01*
X191332Y360666D01*
Y360333D01*
X190999Y360000D01*
X190333D01*
X189999Y360333D01*
Y360666D01*
X190333Y361000D01*
X189999Y361333D01*
Y361666D01*
X190333Y361000D02*
X190999D01*
X188000Y351000D02*
Y352999D01*
X189000D01*
X189333Y352666D01*
Y352000D01*
X189000Y351666D01*
X188000D01*
X188666D02*
X189333Y351000D01*
X189999Y352999D02*
X191332D01*
Y352666D01*
X189999Y351333D01*
Y351000D01*
X186274Y291667D02*
X185941Y292000D01*
X185274D01*
X184941Y291667D01*
Y290334D01*
X185274Y290000D01*
X185941D01*
X186274Y290334D01*
X186941Y290000D02*
X187607D01*
X187274D01*
Y292000D01*
X186941Y291667D01*
X189940Y292000D02*
X188607D01*
Y291000D01*
X189273Y291333D01*
X189606D01*
X189940Y291000D01*
Y290334D01*
X189606Y290000D01*
X188940D01*
X188607Y290334D01*
X178892Y311167D02*
X178559Y311500D01*
X177893D01*
X177559Y311167D01*
Y309834D01*
X177893Y309500D01*
X178559D01*
X178892Y309834D01*
X179559Y309500D02*
X180225D01*
X179892D01*
Y311500D01*
X179559Y311167D01*
X181225D02*
X181558Y311500D01*
X182225D01*
X182558Y311167D01*
Y309834D01*
X182225Y309500D01*
X181558D01*
X181225Y309834D01*
Y311167D01*
X180392Y319166D02*
X180059Y319499D01*
X179392D01*
X179059Y319166D01*
Y317833D01*
X179392Y317500D01*
X180059D01*
X180392Y317833D01*
X181058Y319166D02*
X181391Y319499D01*
X182058D01*
X182391Y319166D01*
Y318832D01*
X182058Y318499D01*
X182391Y318166D01*
Y317833D01*
X182058Y317500D01*
X181391D01*
X181058Y317833D01*
Y318166D01*
X181391Y318499D01*
X181058Y318832D01*
Y319166D01*
X181391Y318499D02*
X182058D01*
D17*
X166382Y378500D02*
Y381499D01*
X167881D01*
X168381Y380999D01*
Y379999D01*
X167881Y379500D01*
X166382D01*
X167382D02*
X168381Y378500D01*
X171380D02*
X169381D01*
X171380Y380499D01*
Y380999D01*
X170880Y381499D01*
X169881D01*
X169381Y380999D01*
X188999Y381499D02*
X188499Y381999D01*
X187500D01*
X187000Y381499D01*
Y379500D01*
X187500Y379000D01*
X188499D01*
X188999Y379500D01*
X189999Y379000D02*
X190999D01*
X190499D01*
Y381999D01*
X189999Y381499D01*
M02*
