G04*
G04 #@! TF.GenerationSoftware,Altium Limited,Altium Designer,19.1.3 (30)*
G04*
G04 Layer_Color=128*
%FSLAX25Y25*%
%MOIN*%
G70*
G01*
G75*
%ADD10C,0.01000*%
%ADD11C,0.00200*%
D10*
X-1000Y0D02*
X-1000Y386000D01*
Y0D02*
X380500D01*
Y386000D01*
X-1000D02*
X380500D01*
D11*
X11228Y266000D02*
X14772D01*
X13000Y264228D02*
Y267772D01*
X21228Y266000D02*
X24772D01*
X23000Y264228D02*
Y267772D01*
X11228Y256000D02*
X14772D01*
X13000Y254228D02*
Y257772D01*
X21228Y256000D02*
X24772D01*
X23000Y254228D02*
Y257772D01*
X11228Y246000D02*
X14772D01*
X13000Y244228D02*
Y247772D01*
X21228Y246000D02*
X24772D01*
X23000Y244228D02*
Y247772D01*
X11228Y236000D02*
X14772D01*
X13000Y234228D02*
Y237772D01*
X21228Y236000D02*
X24772D01*
X23000Y234228D02*
Y237772D01*
X11228Y226000D02*
X14772D01*
X13000Y224228D02*
Y227772D01*
X21228Y226000D02*
X24772D01*
X23000Y224228D02*
Y227772D01*
X11228Y216000D02*
X14772D01*
X13000Y214228D02*
Y217772D01*
X21228Y216000D02*
X24772D01*
X23000Y214228D02*
Y217772D01*
X11228Y206000D02*
X14772D01*
X13000Y204228D02*
Y207772D01*
X21228Y206000D02*
X24772D01*
X23000Y204228D02*
Y207772D01*
X11228Y196000D02*
X14772D01*
X13000Y194228D02*
Y197772D01*
X21228Y196000D02*
X24772D01*
X23000Y194228D02*
Y197772D01*
X11228Y371500D02*
X14772D01*
X13000Y369728D02*
Y373272D01*
X21228Y371500D02*
X24772D01*
X23000Y369728D02*
Y373272D01*
X11228Y361500D02*
X14772D01*
X13000Y359728D02*
Y363272D01*
X21228Y361500D02*
X24772D01*
X23000Y359728D02*
Y363272D01*
X11228Y351500D02*
X14772D01*
X13000Y349728D02*
Y353272D01*
X21228Y351500D02*
X24772D01*
X23000Y349728D02*
Y353272D01*
X11228Y341500D02*
X14772D01*
X13000Y339728D02*
Y343272D01*
X21228Y341500D02*
X24772D01*
X23000Y339728D02*
Y343272D01*
X11228Y331500D02*
X14772D01*
X13000Y329728D02*
Y333272D01*
X21228Y331500D02*
X24772D01*
X23000Y329728D02*
Y333272D01*
X11228Y321500D02*
X14772D01*
X13000Y319728D02*
Y323272D01*
X21228Y321500D02*
X24772D01*
X23000Y319728D02*
Y323272D01*
X11228Y311500D02*
X14772D01*
X13000Y309728D02*
Y313272D01*
X21228Y311500D02*
X24772D01*
X23000Y309728D02*
Y313272D01*
X11228Y301500D02*
X14772D01*
X13000Y299728D02*
Y303272D01*
X21228Y301500D02*
X24772D01*
X23000Y299728D02*
Y303272D01*
X365600Y348500D02*
X366400D01*
X366000Y348100D02*
Y348900D01*
X358100Y333500D02*
X358900D01*
X358500Y333100D02*
Y333900D01*
X365600Y318500D02*
X366400D01*
X366000Y318100D02*
Y318900D01*
X365600Y288500D02*
X366400D01*
X366000Y288100D02*
Y288900D01*
X358100Y273500D02*
X358900D01*
X358500Y273100D02*
Y273900D01*
X365600Y258500D02*
X366400D01*
X366000Y258100D02*
Y258900D01*
X358100Y243500D02*
X358900D01*
X358500Y243100D02*
Y243900D01*
X365600Y228500D02*
X366400D01*
X366000Y228100D02*
Y228900D01*
X358100Y213500D02*
X358900D01*
X358500Y213100D02*
Y213900D01*
X365600Y198500D02*
X366400D01*
X366000Y198100D02*
Y198900D01*
X358100Y183500D02*
X358900D01*
X358500Y183100D02*
Y183900D01*
X365600Y168500D02*
X366400D01*
X366000Y168100D02*
Y168900D01*
X358100Y153500D02*
X358900D01*
X358500Y153100D02*
Y153900D01*
X365600Y138500D02*
X366400D01*
X366000Y138100D02*
Y138900D01*
X358100Y123500D02*
X358900D01*
X358500Y123100D02*
Y123900D01*
X365600Y108500D02*
X366400D01*
X366000Y108100D02*
Y108900D01*
X358100Y93500D02*
X358900D01*
X358500Y93100D02*
Y93900D01*
X365600Y78500D02*
X366400D01*
X366000Y78100D02*
Y78900D01*
X358100Y63500D02*
X358900D01*
X358500Y63100D02*
Y63900D01*
X365600Y48500D02*
X366400D01*
X366000Y48100D02*
Y48900D01*
X358100Y33500D02*
X358900D01*
X358500Y33100D02*
Y33900D01*
X365600Y18500D02*
X366400D01*
X366000Y18100D02*
Y18900D01*
X350600Y348500D02*
X351400D01*
X351000Y348100D02*
Y348900D01*
X343100Y273500D02*
X343900D01*
X343500Y273100D02*
Y273900D01*
X343100Y243500D02*
X343900D01*
X343500Y243100D02*
Y243900D01*
X343100Y213500D02*
X343900D01*
X343500Y213100D02*
Y213900D01*
X343100Y183500D02*
X343900D01*
X343500Y183100D02*
Y183900D01*
X343100Y123500D02*
X343900D01*
X343500Y123100D02*
Y123900D01*
X343100Y93500D02*
X343900D01*
X343500Y93100D02*
Y93900D01*
X343100Y63500D02*
X343900D01*
X343500Y63100D02*
Y63900D01*
X343100Y33500D02*
X343900D01*
X343500Y33100D02*
Y33900D01*
X335600Y348500D02*
X336400D01*
X336000Y348100D02*
Y348900D01*
X335600Y288500D02*
X336400D01*
X336000Y288100D02*
Y288900D01*
X335600Y258500D02*
X336400D01*
X336000Y258100D02*
Y258900D01*
X328100Y243500D02*
X328900D01*
X328500Y243100D02*
Y243900D01*
X335600Y198500D02*
X336400D01*
X336000Y198100D02*
Y198900D01*
X328100Y183500D02*
X328900D01*
X328500Y183100D02*
Y183900D01*
X335600Y168500D02*
X336400D01*
X336000Y168100D02*
Y168900D01*
X328100Y153500D02*
X328900D01*
X328500Y153100D02*
Y153900D01*
X335600Y48500D02*
X336400D01*
X336000Y48100D02*
Y48900D01*
X313100Y333500D02*
X313900D01*
X313500Y333100D02*
Y333900D01*
X320600Y258500D02*
X321400D01*
X321000Y258100D02*
Y258900D01*
X313100Y243500D02*
X313900D01*
X313500Y243100D02*
Y243900D01*
X313100Y213500D02*
X313900D01*
X313500Y213100D02*
Y213900D01*
X320600Y198500D02*
X321400D01*
X321000Y198100D02*
Y198900D01*
X313100Y183500D02*
X313900D01*
X313500Y183100D02*
Y183900D01*
X320600Y168500D02*
X321400D01*
X321000Y168100D02*
Y168900D01*
X313100Y93500D02*
X313900D01*
X313500Y93100D02*
Y93900D01*
X320600Y48500D02*
X321400D01*
X321000Y48100D02*
Y48900D01*
X305600Y348500D02*
X306400D01*
X306000Y348100D02*
Y348900D01*
X305600Y198500D02*
X306400D01*
X306000Y198100D02*
Y198900D01*
X298100Y183500D02*
X298900D01*
X298500Y183100D02*
Y183900D01*
X305600Y168500D02*
X306400D01*
X306000Y168100D02*
Y168900D01*
X298100Y123500D02*
X298900D01*
X298500Y123100D02*
Y123900D01*
X298100Y93500D02*
X298900D01*
X298500Y93100D02*
Y93900D01*
X305600Y78500D02*
X306400D01*
X306000Y78100D02*
Y78900D01*
X298100Y63500D02*
X298900D01*
X298500Y63100D02*
Y63900D01*
X305600Y48500D02*
X306400D01*
X306000Y48100D02*
Y48900D01*
X298100Y33500D02*
X298900D01*
X298500Y33100D02*
Y33900D01*
X283100Y183500D02*
X283900D01*
X283500Y183100D02*
Y183900D01*
X283100Y153500D02*
X283900D01*
X283500Y153100D02*
Y153900D01*
X283100Y93500D02*
X283900D01*
X283500Y93100D02*
Y93900D01*
X283100Y63500D02*
X283900D01*
X283500Y63100D02*
Y63900D01*
X275600Y348500D02*
X276400D01*
X276000Y348100D02*
Y348900D01*
X268100Y183500D02*
X268900D01*
X268500Y183100D02*
Y183900D01*
X268100Y153500D02*
X268900D01*
X268500Y153100D02*
Y153900D01*
X268100Y123500D02*
X268900D01*
X268500Y123100D02*
Y123900D01*
X275600Y108500D02*
X276400D01*
X276000Y108100D02*
Y108900D01*
X275600Y78500D02*
X276400D01*
X276000Y78100D02*
Y78900D01*
X268100Y63500D02*
X268900D01*
X268500Y63100D02*
Y63900D01*
X275600Y18500D02*
X276400D01*
X276000Y18100D02*
Y18900D01*
X260600Y348500D02*
X261400D01*
X261000Y348100D02*
Y348900D01*
X260600Y288500D02*
X261400D01*
X261000Y288100D02*
Y288900D01*
X253100Y243500D02*
X253900D01*
X253500Y243100D02*
Y243900D01*
X260600Y198500D02*
X261400D01*
X261000Y198100D02*
Y198900D01*
X253100Y153500D02*
X253900D01*
X253500Y153100D02*
Y153900D01*
X253100Y123500D02*
X253900D01*
X253500Y123100D02*
Y123900D01*
X253100Y93500D02*
X253900D01*
X253500Y93100D02*
Y93900D01*
X253100Y33500D02*
X253900D01*
X253500Y33100D02*
Y33900D01*
X260600Y18500D02*
X261400D01*
X261000Y18100D02*
Y18900D01*
X245600Y288500D02*
X246400D01*
X246000Y288100D02*
Y288900D01*
X238100Y273500D02*
X238900D01*
X238500Y273100D02*
Y273900D01*
X238100Y243500D02*
X238900D01*
X238500Y243100D02*
Y243900D01*
X238100Y213500D02*
X238900D01*
X238500Y213100D02*
Y213900D01*
X238100Y123500D02*
X238900D01*
X238500Y123100D02*
Y123900D01*
X245600Y108500D02*
X246400D01*
X246000Y108100D02*
Y108900D01*
X238100Y93500D02*
X238900D01*
X238500Y93100D02*
Y93900D01*
X245600Y78500D02*
X246400D01*
X246000Y78100D02*
Y78900D01*
X245600Y48500D02*
X246400D01*
X246000Y48100D02*
Y48900D01*
X238100Y33500D02*
X238900D01*
X238500Y33100D02*
Y33900D01*
X245600Y18500D02*
X246400D01*
X246000Y18100D02*
Y18900D01*
X230600Y348500D02*
X231400D01*
X231000Y348100D02*
Y348900D01*
X223100Y273500D02*
X223900D01*
X223500Y273100D02*
Y273900D01*
X223100Y243500D02*
X223900D01*
X223500Y243100D02*
Y243900D01*
X223100Y213500D02*
X223900D01*
X223500Y213100D02*
Y213900D01*
X230600Y198500D02*
X231400D01*
X231000Y198100D02*
Y198900D01*
X223100Y183500D02*
X223900D01*
X223500Y183100D02*
Y183900D01*
X230600Y138500D02*
X231400D01*
X231000Y138100D02*
Y138900D01*
X223100Y123500D02*
X223900D01*
X223500Y123100D02*
Y123900D01*
X223100Y93500D02*
X223900D01*
X223500Y93100D02*
Y93900D01*
X230600Y78500D02*
X231400D01*
X231000Y78100D02*
Y78900D01*
X223100Y63500D02*
X223900D01*
X223500Y63100D02*
Y63900D01*
X230600Y48500D02*
X231400D01*
X231000Y48100D02*
Y48900D01*
X223100Y33500D02*
X223900D01*
X223500Y33100D02*
Y33900D01*
X230600Y18500D02*
X231400D01*
X231000Y18100D02*
Y18900D01*
X208100Y333500D02*
X208900D01*
X208500Y333100D02*
Y333900D01*
X208100Y243500D02*
X208900D01*
X208500Y243100D02*
Y243900D01*
X215600Y198500D02*
X216400D01*
X216000Y198100D02*
Y198900D01*
X215600Y168500D02*
X216400D01*
X216000Y168100D02*
Y168900D01*
X208100Y123500D02*
X208900D01*
X208500Y123100D02*
Y123900D01*
X215600Y108500D02*
X216400D01*
X216000Y108100D02*
Y108900D01*
X208100Y93500D02*
X208900D01*
X208500Y93100D02*
Y93900D01*
X215600Y78500D02*
X216400D01*
X216000Y78100D02*
Y78900D01*
X208100Y63500D02*
X208900D01*
X208500Y63100D02*
Y63900D01*
X215600Y48500D02*
X216400D01*
X216000Y48100D02*
Y48900D01*
X208100Y33500D02*
X208900D01*
X208500Y33100D02*
Y33900D01*
X200600Y258500D02*
X201400D01*
X201000Y258100D02*
Y258900D01*
X200600Y198500D02*
X201400D01*
X201000Y198100D02*
Y198900D01*
X200600Y168500D02*
X201400D01*
X201000Y168100D02*
Y168900D01*
X193100Y123500D02*
X193900D01*
X193500Y123100D02*
Y123900D01*
X200600Y108500D02*
X201400D01*
X201000Y108100D02*
Y108900D01*
X193100Y93500D02*
X193900D01*
X193500Y93100D02*
Y93900D01*
X200600Y78500D02*
X201400D01*
X201000Y78100D02*
Y78900D01*
X193100Y63500D02*
X193900D01*
X193500Y63100D02*
Y63900D01*
X200600Y48500D02*
X201400D01*
X201000Y48100D02*
Y48900D01*
X193100Y33500D02*
X193900D01*
X193500Y33100D02*
Y33900D01*
X200600Y18500D02*
X201400D01*
X201000Y18100D02*
Y18900D01*
X185600Y198500D02*
X186400D01*
X186000Y198100D02*
Y198900D01*
X178100Y123500D02*
X178900D01*
X178500Y123100D02*
Y123900D01*
X185600Y108500D02*
X186400D01*
X186000Y108100D02*
Y108900D01*
X178100Y93500D02*
X178900D01*
X178500Y93100D02*
Y93900D01*
X185600Y78500D02*
X186400D01*
X186000Y78100D02*
Y78900D01*
X178100Y63500D02*
X178900D01*
X178500Y63100D02*
Y63900D01*
X185600Y48500D02*
X186400D01*
X186000Y48100D02*
Y48900D01*
X178100Y33500D02*
X178900D01*
X178500Y33100D02*
Y33900D01*
X185600Y18500D02*
X186400D01*
X186000Y18100D02*
Y18900D01*
X170600Y318500D02*
X171400D01*
X171000Y318100D02*
Y318900D01*
X170600Y228500D02*
X171400D01*
X171000Y228100D02*
Y228900D01*
X163100Y213500D02*
X163900D01*
X163500Y213100D02*
Y213900D01*
X170600Y198500D02*
X171400D01*
X171000Y198100D02*
Y198900D01*
X163100Y183500D02*
X163900D01*
X163500Y183100D02*
Y183900D01*
X170600Y168500D02*
X171400D01*
X171000Y168100D02*
Y168900D01*
X170600Y138500D02*
X171400D01*
X171000Y138100D02*
Y138900D01*
X170600Y108500D02*
X171400D01*
X171000Y108100D02*
Y108900D01*
X163100Y63500D02*
X163900D01*
X163500Y63100D02*
Y63900D01*
X163100Y33500D02*
X163900D01*
X163500Y33100D02*
Y33900D01*
X170600Y18500D02*
X171400D01*
X171000Y18100D02*
Y18900D01*
X155600Y318500D02*
X156400D01*
X156000Y318100D02*
Y318900D01*
X155600Y228500D02*
X156400D01*
X156000Y228100D02*
Y228900D01*
X155600Y168500D02*
X156400D01*
X156000Y168100D02*
Y168900D01*
X148100Y153500D02*
X148900D01*
X148500Y153100D02*
Y153900D01*
X155600Y138500D02*
X156400D01*
X156000Y138100D02*
Y138900D01*
X148100Y123500D02*
X148900D01*
X148500Y123100D02*
Y123900D01*
X148100Y93500D02*
X148900D01*
X148500Y93100D02*
Y93900D01*
X155600Y78500D02*
X156400D01*
X156000Y78100D02*
Y78900D01*
X148100Y63500D02*
X148900D01*
X148500Y63100D02*
Y63900D01*
X155600Y48500D02*
X156400D01*
X156000Y48100D02*
Y48900D01*
X148100Y33500D02*
X148900D01*
X148500Y33100D02*
Y33900D01*
X155600Y18500D02*
X156400D01*
X156000Y18100D02*
Y18900D01*
X133100Y363500D02*
X133900D01*
X133500Y363100D02*
Y363900D01*
X133100Y243500D02*
X133900D01*
X133500Y243100D02*
Y243900D01*
X140600Y228500D02*
X141400D01*
X141000Y228100D02*
Y228900D01*
X133100Y213500D02*
X133900D01*
X133500Y213100D02*
Y213900D01*
X140600Y198500D02*
X141400D01*
X141000Y198100D02*
Y198900D01*
X140600Y168500D02*
X141400D01*
X141000Y168100D02*
Y168900D01*
X133100Y153500D02*
X133900D01*
X133500Y153100D02*
Y153900D01*
X133100Y93500D02*
X133900D01*
X133500Y93100D02*
Y93900D01*
X140600Y78500D02*
X141400D01*
X141000Y78100D02*
Y78900D01*
X133100Y63500D02*
X133900D01*
X133500Y63100D02*
Y63900D01*
X140600Y48500D02*
X141400D01*
X141000Y48100D02*
Y48900D01*
X140600Y18500D02*
X141400D01*
X141000Y18100D02*
Y18900D01*
X118100Y363500D02*
X118900D01*
X118500Y363100D02*
Y363900D01*
X125600Y288500D02*
X126400D01*
X126000Y288100D02*
Y288900D01*
X118100Y243500D02*
X118900D01*
X118500Y243100D02*
Y243900D01*
X125600Y228500D02*
X126400D01*
X126000Y228100D02*
Y228900D01*
X118100Y213500D02*
X118900D01*
X118500Y213100D02*
Y213900D01*
X125600Y198500D02*
X126400D01*
X126000Y198100D02*
Y198900D01*
X125600Y168500D02*
X126400D01*
X126000Y168100D02*
Y168900D01*
X118100Y153500D02*
X118900D01*
X118500Y153100D02*
Y153900D01*
X125600Y138500D02*
X126400D01*
X126000Y138100D02*
Y138900D01*
X118100Y93500D02*
X118900D01*
X118500Y93100D02*
Y93900D01*
X125600Y78500D02*
X126400D01*
X126000Y78100D02*
Y78900D01*
X118100Y63500D02*
X118900D01*
X118500Y63100D02*
Y63900D01*
X118100Y33500D02*
X118900D01*
X118500Y33100D02*
Y33900D01*
X103100Y363500D02*
X103900D01*
X103500Y363100D02*
Y363900D01*
X110600Y318500D02*
X111400D01*
X111000Y318100D02*
Y318900D01*
X110600Y198500D02*
X111400D01*
X111000Y198100D02*
Y198900D01*
X110600Y168500D02*
X111400D01*
X111000Y168100D02*
Y168900D01*
X103100Y123500D02*
X103900D01*
X103500Y123100D02*
Y123900D01*
X110600Y108500D02*
X111400D01*
X111000Y108100D02*
Y108900D01*
X103100Y93500D02*
X103900D01*
X103500Y93100D02*
Y93900D01*
X110600Y78500D02*
X111400D01*
X111000Y78100D02*
Y78900D01*
X103100Y63500D02*
X103900D01*
X103500Y63100D02*
Y63900D01*
X103100Y33500D02*
X103900D01*
X103500Y33100D02*
Y33900D01*
X95600Y318500D02*
X96400D01*
X96000Y318100D02*
Y318900D01*
X88100Y303500D02*
X88900D01*
X88500Y303100D02*
Y303900D01*
X95600Y228500D02*
X96400D01*
X96000Y228100D02*
Y228900D01*
X95600Y198500D02*
X96400D01*
X96000Y198100D02*
Y198900D01*
X95600Y168500D02*
X96400D01*
X96000Y168100D02*
Y168900D01*
X88100Y123500D02*
X88900D01*
X88500Y123100D02*
Y123900D01*
X95600Y108500D02*
X96400D01*
X96000Y108100D02*
Y108900D01*
X88100Y93500D02*
X88900D01*
X88500Y93100D02*
Y93900D01*
X95600Y78500D02*
X96400D01*
X96000Y78100D02*
Y78900D01*
X88100Y63500D02*
X88900D01*
X88500Y63100D02*
Y63900D01*
X88100Y33500D02*
X88900D01*
X88500Y33100D02*
Y33900D01*
X80600Y318500D02*
X81400D01*
X81000Y318100D02*
Y318900D01*
X73100Y303500D02*
X73900D01*
X73500Y303100D02*
Y303900D01*
X80600Y288500D02*
X81400D01*
X81000Y288100D02*
Y288900D01*
X80600Y228500D02*
X81400D01*
X81000Y228100D02*
Y228900D01*
X80600Y168500D02*
X81400D01*
X81000Y168100D02*
Y168900D01*
X80600Y108500D02*
X81400D01*
X81000Y108100D02*
Y108900D01*
X80600Y78500D02*
X81400D01*
X81000Y78100D02*
Y78900D01*
X73100Y63500D02*
X73900D01*
X73500Y63100D02*
Y63900D01*
X80600Y48500D02*
X81400D01*
X81000Y48100D02*
Y48900D01*
X73100Y33500D02*
X73900D01*
X73500Y33100D02*
Y33900D01*
X80600Y18500D02*
X81400D01*
X81000Y18100D02*
Y18900D01*
X65600Y318500D02*
X66400D01*
X66000Y318100D02*
Y318900D01*
X58100Y303500D02*
X58900D01*
X58500Y303100D02*
Y303900D01*
X65600Y198500D02*
X66400D01*
X66000Y198100D02*
Y198900D01*
X65600Y168500D02*
X66400D01*
X66000Y168100D02*
Y168900D01*
X65600Y138500D02*
X66400D01*
X66000Y138100D02*
Y138900D01*
X58100Y123500D02*
X58900D01*
X58500Y123100D02*
Y123900D01*
X65600Y108500D02*
X66400D01*
X66000Y108100D02*
Y108900D01*
X65600Y78500D02*
X66400D01*
X66000Y78100D02*
Y78900D01*
X58100Y63500D02*
X58900D01*
X58500Y63100D02*
Y63900D01*
X65600Y48500D02*
X66400D01*
X66000Y48100D02*
Y48900D01*
X58100Y33500D02*
X58900D01*
X58500Y33100D02*
Y33900D01*
X65600Y18500D02*
X66400D01*
X66000Y18100D02*
Y18900D01*
X50600Y318500D02*
X51400D01*
X51000Y318100D02*
Y318900D01*
X43100Y303500D02*
X43900D01*
X43500Y303100D02*
Y303900D01*
X43100Y213500D02*
X43900D01*
X43500Y213100D02*
Y213900D01*
X50600Y108500D02*
X51400D01*
X51000Y108100D02*
Y108900D01*
X43100Y93500D02*
X43900D01*
X43500Y93100D02*
Y93900D01*
X50600Y78500D02*
X51400D01*
X51000Y78100D02*
Y78900D01*
X43100Y63500D02*
X43900D01*
X43500Y63100D02*
Y63900D01*
X50600Y48500D02*
X51400D01*
X51000Y48100D02*
Y48900D01*
X43100Y33500D02*
X43900D01*
X43500Y33100D02*
Y33900D01*
X50600Y18500D02*
X51400D01*
X51000Y18100D02*
Y18900D01*
X35600Y198500D02*
X36400D01*
X36000Y198100D02*
Y198900D01*
X28100Y183500D02*
X28900D01*
X28500Y183100D02*
Y183900D01*
X35600Y168500D02*
X36400D01*
X36000Y168100D02*
Y168900D01*
X28100Y153500D02*
X28900D01*
X28500Y153100D02*
Y153900D01*
X35600Y138500D02*
X36400D01*
X36000Y138100D02*
Y138900D01*
X28100Y123500D02*
X28900D01*
X28500Y123100D02*
Y123900D01*
X35600Y108500D02*
X36400D01*
X36000Y108100D02*
Y108900D01*
X28100Y93500D02*
X28900D01*
X28500Y93100D02*
Y93900D01*
X35600Y78500D02*
X36400D01*
X36000Y78100D02*
Y78900D01*
X28100Y63500D02*
X28900D01*
X28500Y63100D02*
Y63900D01*
X35600Y48500D02*
X36400D01*
X36000Y48100D02*
Y48900D01*
X28100Y33500D02*
X28900D01*
X28500Y33100D02*
Y33900D01*
X35600Y18500D02*
X36400D01*
X36000Y18100D02*
Y18900D01*
X13100Y273500D02*
X13900D01*
X13500Y273100D02*
Y273900D01*
X13100Y183500D02*
X13900D01*
X13500Y183100D02*
Y183900D01*
X20600Y168500D02*
X21400D01*
X21000Y168100D02*
Y168900D01*
X13100Y153500D02*
X13900D01*
X13500Y153100D02*
Y153900D01*
X20600Y138500D02*
X21400D01*
X21000Y138100D02*
Y138900D01*
X20600Y78500D02*
X21400D01*
X21000Y78100D02*
Y78900D01*
X13100Y63500D02*
X13900D01*
X13500Y63100D02*
Y63900D01*
X20600Y48500D02*
X21400D01*
X21000Y48100D02*
Y48900D01*
X13100Y33500D02*
X13900D01*
X13500Y33100D02*
Y33900D01*
X20600Y18500D02*
X21400D01*
X21000Y18100D02*
Y18900D01*
X330500Y129500D02*
X333500D01*
X332000Y128000D02*
Y131000D01*
X370000Y363000D02*
X373000D01*
X371500Y361500D02*
Y364500D01*
X312500Y22000D02*
X315500D01*
X314000Y20500D02*
Y23500D01*
X293500Y19500D02*
X296500D01*
X295000Y18000D02*
Y21000D01*
X296500Y7000D02*
X299500D01*
X298000Y5500D02*
Y8500D01*
X235500Y282000D02*
X238500D01*
X237000Y280500D02*
Y283500D01*
X201500Y337000D02*
X204500D01*
X203000Y335500D02*
Y338500D01*
X263000Y281000D02*
X266000D01*
X264500Y279500D02*
Y282500D01*
X288500Y49000D02*
X291500D01*
X290000Y47500D02*
Y50500D01*
X134500Y347500D02*
X137500D01*
X136000Y346000D02*
Y349000D01*
X180250Y378000D02*
X180750D01*
X180500Y377750D02*
Y378250D01*
X152000Y368000D02*
X155000D01*
X153500Y366500D02*
Y369500D01*
X218500D02*
X221500D01*
X220000Y368000D02*
Y371000D01*
X226500Y353500D02*
X229500D01*
X228000Y352000D02*
Y355000D01*
X251000Y337000D02*
X254000D01*
X252500Y335500D02*
Y338500D01*
X164000Y244500D02*
X167000D01*
X165500Y243000D02*
Y246000D01*
X163500Y313000D02*
X166500D01*
X165000Y311500D02*
Y314500D01*
X182000Y290000D02*
X183000D01*
X182500Y289500D02*
Y290500D01*
X201000Y265000D02*
X204000D01*
X202500Y263500D02*
Y266500D01*
X156500Y268000D02*
X159500D01*
X158000Y266500D02*
Y269500D01*
X340500Y115000D02*
X343500D01*
X342000Y113500D02*
Y116500D01*
X312500Y376000D02*
X315500D01*
X314000Y374500D02*
Y377500D01*
X164000Y369000D02*
X165000D01*
X164500Y368500D02*
Y369500D01*
X122000Y366500D02*
X125000D01*
X123500Y365000D02*
Y368000D01*
X262000Y244500D02*
X265000D01*
X263500Y243000D02*
Y246000D01*
X298000Y197000D02*
X301000D01*
X299500Y195500D02*
Y198500D01*
X206500Y199000D02*
X209500D01*
X208000Y197500D02*
Y200500D01*
X134500Y55000D02*
X137500D01*
X136000Y53500D02*
Y56500D01*
X101000Y199000D02*
X104000D01*
X102500Y197500D02*
Y200500D01*
X127000Y105000D02*
X130000D01*
X128500Y103500D02*
Y106500D01*
X161000Y105000D02*
X164000D01*
X162500Y103500D02*
Y106500D01*
X130500Y284500D02*
X133500D01*
X132000Y283000D02*
Y286000D01*
X176500D02*
X179500D01*
X178000Y284500D02*
Y287500D01*
X130500Y311000D02*
X133500D01*
X132000Y309500D02*
Y312500D01*
X222500Y177000D02*
X225500D01*
X224000Y175500D02*
Y178500D01*
X78500Y346500D02*
X81500D01*
X80000Y345000D02*
Y348000D01*
X126000Y344000D02*
X129000D01*
X127500Y342500D02*
Y345500D01*
X197000Y352000D02*
X200000D01*
X198500Y350500D02*
Y353500D01*
X162000Y336000D02*
X165000D01*
X163500Y334500D02*
Y337500D01*
X176500Y357000D02*
X179500D01*
X178000Y355500D02*
Y358500D01*
X54000Y235000D02*
X57000D01*
X55500Y233500D02*
Y236500D01*
X41500Y240000D02*
X44500D01*
X43000Y238500D02*
Y241500D01*
X201000Y247000D02*
X204000D01*
X202500Y245500D02*
Y248500D01*
X260000Y256000D02*
X263000D01*
X261500Y254500D02*
Y257500D01*
X171500Y338000D02*
X174500D01*
X173000Y336500D02*
Y339500D01*
X177000Y347500D02*
X180000D01*
X178500Y346000D02*
Y349000D01*
X251000Y375000D02*
X254000D01*
X252500Y373500D02*
Y376500D01*
X143500Y315000D02*
X146500D01*
X145000Y313500D02*
Y316500D01*
X143500Y284500D02*
X146500D01*
X145000Y283000D02*
Y286000D01*
X114500Y316000D02*
X117500D01*
X116000Y314500D02*
Y317500D01*
X163500Y346500D02*
X166500D01*
X165000Y345000D02*
Y348000D01*
X244000Y209000D02*
X247000D01*
X245500Y207500D02*
Y210500D01*
X322000Y155000D02*
X325000D01*
X323500Y153500D02*
Y156500D01*
X300000Y52500D02*
X303000D01*
X301500Y51000D02*
Y54000D01*
X147000Y242500D02*
X150000D01*
X148500Y241000D02*
Y244000D01*
X119000Y260000D02*
X122000D01*
X120500Y258500D02*
Y261500D01*
X328500Y138000D02*
X331500D01*
X330000Y136500D02*
Y139500D01*
X264500Y73000D02*
X267500D01*
X266000Y71500D02*
Y74500D01*
X161000Y117500D02*
X164000D01*
X162500Y116000D02*
Y119000D01*
X246500Y73500D02*
X249500D01*
X248000Y72000D02*
Y75000D01*
X259500Y115000D02*
X262500D01*
X261000Y113500D02*
Y116500D01*
X260500Y226000D02*
X263500D01*
X262000Y224500D02*
Y227500D01*
X312000Y279000D02*
X315000D01*
X313500Y277500D02*
Y280500D01*
X336500Y303000D02*
X339500D01*
X338000Y301500D02*
Y304500D01*
X336500Y314500D02*
X339500D01*
X338000Y313000D02*
Y316000D01*
X197500Y225500D02*
X200500D01*
X199000Y224000D02*
Y227000D01*
X232500Y73500D02*
X235500D01*
X234000Y72000D02*
Y75000D01*
X255500Y50000D02*
X258500D01*
X257000Y48500D02*
Y51500D01*
X264000Y58500D02*
X267000D01*
X265500Y57000D02*
Y60000D01*
X342000Y54500D02*
X345000D01*
X343500Y53000D02*
Y56000D01*
X316500Y55000D02*
X319500D01*
X318000Y53500D02*
Y56500D01*
X108500Y123500D02*
X111500D01*
X110000Y122000D02*
Y125000D01*
X215000Y123000D02*
X218000D01*
X216500Y121500D02*
Y124500D01*
X311500Y121000D02*
X314500D01*
X313000Y119500D02*
Y122500D01*
X120500Y184000D02*
X123500D01*
X122000Y182500D02*
Y185500D01*
X87500Y149000D02*
X90500D01*
X89000Y147500D02*
Y150500D01*
X224500Y192000D02*
X227500D01*
X226000Y190500D02*
Y193500D01*
X195000Y149000D02*
X198000D01*
X196500Y147500D02*
Y150500D01*
X296500Y279000D02*
X299500D01*
X298000Y277500D02*
Y280500D01*
X290500Y148000D02*
X293500D01*
X292000Y146500D02*
Y149500D01*
X110000Y240000D02*
X113000D01*
X111500Y238500D02*
Y241500D01*
X215500D02*
X218500D01*
X217000Y240000D02*
Y243000D01*
X306500Y240500D02*
X309500D01*
X308000Y239000D02*
Y242000D01*
X276500Y150000D02*
X278500D01*
X277500Y149000D02*
Y151000D01*
X184000Y150000D02*
X186000D01*
X185000Y149000D02*
Y151000D01*
X73000Y150500D02*
X75000D01*
X74000Y149500D02*
Y151500D01*
X270000Y224000D02*
X272000D01*
X271000Y223000D02*
Y225000D01*
X184000Y227000D02*
X186000D01*
X185000Y226000D02*
Y228000D01*
X73500Y229000D02*
X75500D01*
X74500Y228000D02*
Y230000D01*
X277350Y291500D02*
X278650D01*
X278000Y290850D02*
Y292150D01*
X277350Y296500D02*
X278650D01*
X278000Y295850D02*
Y297150D01*
X276350Y300000D02*
X277650D01*
X277000Y299350D02*
Y300650D01*
X274850Y306000D02*
X276150D01*
X275500Y305350D02*
Y306650D01*
X282850Y308000D02*
X284150D01*
X283500Y307350D02*
Y308650D01*
X283400Y315500D02*
X284600D01*
X284000Y314900D02*
Y316100D01*
X279400Y311500D02*
X280600D01*
X280000Y310900D02*
Y312100D01*
X273900Y321000D02*
X275100D01*
X274500Y320400D02*
Y321600D01*
X277850Y325500D02*
X279150D01*
X278500Y324850D02*
Y326150D01*
M02*
